<?xml version="1.0" encoding="UTF-8"?>
<svg width="427px" height="427px" viewBox="0 0 427 427" version="1.1" xmlns="http://www.w3.org/2000/svg" xmlns:xlink="http://www.w3.org/1999/xlink">
    <!-- Generator: Sketch 3.8.1 (29687) - http://www.bohemiancoding.com/sketch -->
    <title>exchange</title>
    <desc>Created with Sketch.</desc>
    <defs>
        <radialGradient cx="52.3935746%" cy="0%" fx="52.3935746%" fy="0%" r="97.6064254%" id="radialGradient-1">
            <stop stop-color="#167AEB" stop-opacity="0.775362319" offset="0%"></stop>
            <stop stop-color="#0662CA" offset="100%"></stop>
        </radialGradient>
        <path d="M213.333,0 C95.518,0 0,95.514 0,213.333 C0,331.152 95.518,426.666 213.333,426.666 C331.161,426.666 426.666,331.152 426.666,213.333 C426.666,95.514 331.157,0 213.333,0 L213.333,0 L213.333,0 L213.333,0 Z" id="path-2"></path>
    </defs>
    <g id="Page-1" stroke="none" stroke-width="1" fill="none" fill-rule="evenodd">
        <g id="exchange">
            <g id="Page-1">
                <g id="checked">
                    <g id="Page-1">
                        <g id="012-checked">
                            <g id="mask-4" fill="#FFFFFF">
                                <path d="M213.333,0 C95.518,0 0,95.514 0,213.333 C0,331.152 95.518,426.666 213.333,426.666 C331.161,426.666 426.666,331.152 426.666,213.333 C426.666,95.514 331.157,0 213.333,0 L213.333,0 L213.333,0 L213.333,0 Z" id="path-3"></path>
                            </g>
                            <g id="Shape" fill="url(#radialGradient-1)">
                                <path d="M213.333,0 C95.518,0 0,95.514 0,213.333 C0,331.152 95.518,426.666 213.333,426.666 C331.161,426.666 426.666,331.152 426.666,213.333 C426.666,95.514 331.157,0 213.333,0 L213.333,0 L213.333,0 L213.333,0 Z" id="path-3"></path>
                            </g>
                            <g id="shuffle-Clipped">
                                <mask id="mask-3" fill="white">
                                    <use xlink:href="#path-2"></use>
                                </mask>
                                <g id="path-3"></g>
                                <g id="shuffle" mask="url(#mask-3)">
                                    <g transform="translate(69.000000, 88.000000)" id="Shape">
                                        <g>
                                            <path d="M285.436945,189.131595 L231.308574,144.590833 C228.620198,142.363795 224.867297,141.918388 221.709809,143.361508 C218.534278,144.840261 216.513485,147.975931 216.513485,151.432294 L216.513485,178.156751 L201.41167,178.156751 C188.889973,178.156751 177.450844,171.885412 170.811097,161.409425 L112.388542,69.1209655 C99.1270908,48.1511746 76.2488325,35.6263122 51.1873965,35.6263122 L0,35.6263122 L0,71.258922 L51.1873965,71.258922 C63.7090931,71.258922 75.1482223,77.5302614 81.7879691,88.0062486 L140.210525,180.294708 C153.490018,201.264498 176.368277,213.789361 201.41167,213.789361 L216.513485,213.789361 L216.513485,240.513818 C216.513485,243.970182 218.534278,247.105851 221.709809,248.584605 C222.918676,249.13691 224.2358,249.421971 225.534881,249.421971 C227.609802,249.421971 229.66668,248.727135 231.308574,247.35528 L285.436945,202.814518 C287.511866,201.121968 288.684647,198.609869 288.684647,195.973056 C288.684647,193.336243 287.511866,190.824144 285.436945,189.131595 L285.436945,189.131595 L285.436945,189.131595 Z" fill="#F1F6FD"></path>
                                            <path d="M285.436945,46.6011561 L231.308574,2.06039379 C228.620198,-0.148828019 224.867297,-0.612051947 221.709809,0.848885055 C218.534278,2.29200575 216.513485,5.44549172 216.513485,8.90185487 L216.513485,35.6263122 L201.41167,35.6263122 C176.350234,35.6263122 153.471976,48.1511746 140.210525,69.1209655 L81.8060119,161.409425 C75.166265,171.885412 63.7090931,178.156751 51.1873965,178.156751 L0,178.156751 L0,213.789361 L51.1873965,213.789361 C76.2307897,213.789361 99.109048,201.264498 112.388542,180.294708 L170.793054,88.0062486 C177.450844,77.5302614 188.889973,71.258922 201.41167,71.258922 L216.513485,71.258922 L216.513485,97.9833791 C216.513485,101.439743 218.534278,104.593228 221.709809,106.054166 C222.918676,106.606471 224.2358,106.891532 225.534881,106.891532 C227.609802,106.891532 229.66668,106.17888 231.308574,104.82484 L285.436945,60.2840782 C287.511866,58.5915292 288.684647,56.0794303 288.684647,53.4426171 C288.684647,50.805804 287.511866,48.293705 285.436945,46.6011561 L285.436945,46.6011561 L285.436945,46.6011561 Z" fill="#F1F6FD"></path>
                                        </g>
                                    </g>
                                </g>
                            </g>
                        </g>
                    </g>
                </g>
            </g>
        </g>
    </g>
</svg>