<?xml version="1.0" encoding="UTF-8"?>
<svg width="427px" height="427px" viewBox="0 0 427 427" version="1.1" xmlns="http://www.w3.org/2000/svg" xmlns:xlink="http://www.w3.org/1999/xlink">
    <!-- Generator: Sketch 3.8.1 (29687) - http://www.bohemiancoding.com/sketch -->
    <title>Group 3</title>
    <desc>Created with Sketch.</desc>
    <defs>
        <radialGradient cx="50%" cy="0%" fx="50%" fy="0%" r="100%" id="radialGradient-1">
            <stop stop-color="#BCE481" offset="0%"></stop>
            <stop stop-color="#87C44A" offset="100%"></stop>
        </radialGradient>
        <radialGradient cx="50%" cy="0%" fx="50%" fy="0%" r="100%" id="radialGradient-2">
            <stop stop-color="#E48181" offset="0%"></stop>
            <stop stop-color="#C44A4A" offset="100%"></stop>
        </radialGradient>
        <path d="M213.333,0 C95.518,0 0,95.514 0,213.333 C0,331.152 95.518,426.666 213.333,426.666 C331.161,426.666 426.666,331.152 426.666,213.333 C426.666,95.514 331.157,0 213.333,0 L213.333,0 L213.333,0 Z" id="path-3"></path>
    </defs>
    <g id="Page-1" stroke="none" stroke-width="1" fill="none" fill-rule="evenodd">
        <g id="Group-3">
            <g id="012-checked" fill="url(#radialGradient-1)">
                <g id="Page-1">
                    <g id="012-checked">
                        <path d="M213.333,0 C95.518,0 0,95.514 0,213.333 C0,331.152 95.518,426.666 213.333,426.666 C331.161,426.666 426.666,331.152 426.666,213.333 C426.666,95.514 331.157,0 213.333,0 L213.333,0 L213.333,0 Z" id="Shape"></path>
                    </g>
                </g>
            </g>
            <g id="012-checked">
                <g id="Page-1">
                    <g id="012-checked">
                        <mask id="mask-4" fill="white">
                            <use xlink:href="#path-3"></use>
                        </mask>
                        <use id="Shape" fill="url(#radialGradient-2)" xlink:href="#path-3"></use>
                        <text id="+" mask="url(#mask-4)" transform="translate(186.509974, 241.509974) rotate(45.000000) translate(-186.509974, -241.509974) " font-family="GothamMedium, Gotham Medium" font-size="550" font-weight="normal" fill="#FFFFFF">
                            <tspan x="14.5099744" y="398.009974">+</tspan>
                        </text>
                    </g>
                </g>
            </g>
        </g>
    </g>
</svg>