<?xml version="1.0" encoding="UTF-8"?>
<svg width="3992px" height="1170px" viewBox="0 0 3992 1170" version="1.1" xmlns="http://www.w3.org/2000/svg" xmlns:xlink="http://www.w3.org/1999/xlink">
    <!-- Generator: Sketch 3.8.1 (29687) - http://www.bohemiancoding.com/sketch -->
    <title>logo-token-namespace</title>
    <desc>Created with Sketch.</desc>
    <defs>
        <linearGradient x1="50%" y1="2.08864796%" x2="50%" y2="100%" id="linearGradient-1">
            <stop stop-color="#FBFBFB" offset="0%"></stop>
            <stop stop-color="#FFFFFF" offset="100%"></stop>
        </linearGradient>
        <linearGradient x1="72.4807202%" y1="6.07373046%" x2="31.9385712%" y2="100%" id="linearGradient-2">
            <stop stop-color="#FFEC6F" offset="0%"></stop>
            <stop stop-color="#E3CA2B" offset="100%"></stop>
        </linearGradient>
    </defs>
    <g id="Page-1" stroke="none" stroke-width="1" fill="none" fill-rule="evenodd">
        <g id="logo-token-namespace">
            <g id="Page-1">
                <g id="Group">
                    <g id="logo-token-vertical-white">
                        <path d="M1969.88656,391.128682 C1969.88656,325.405426 1989.20965,266.737209 2036.03096,219.208527 C2082.10909,172.422481 2139.33514,152 2204.36475,152 C2269.39436,152 2326.24882,172.793798 2372.32694,219.579845 C2418.77666,267.108527 2438.47134,325.405426 2438.47134,391.128682 C2438.47134,456.851938 2418.77666,515.148837 2372.32694,562.677519 C2326.24882,609.463566 2269.39436,630.257364 2204.36475,630.257364 C2139.33514,630.257364 2082.10909,609.834884 2036.03096,563.048837 C1989.58124,515.520155 1969.88656,456.851938 1969.88656,391.128682 L1969.88656,391.128682 L1969.88656,391.128682 L1969.88656,391.128682 L1969.88656,391.128682 Z M3063.49877,391.128682 C3063.49877,325.405426 3082.82186,266.737209 3129.64317,219.208527 C3175.7213,172.422481 3232.94735,152 3297.97696,152 C3363.00657,152 3419.86103,172.793798 3465.93915,219.579845 C3512.38887,267.108527 3532.08355,325.405426 3532.08355,391.128682 C3532.08355,456.851938 3512.38887,515.148837 3465.93915,562.677519 C3420.23262,609.463566 3363.00657,630.257364 3297.97696,630.257364 C3232.94735,630.257364 3175.7213,609.834884 3129.64317,563.048837 C3083.19345,515.520155 3063.49877,456.851938 3063.49877,391.128682 L3063.49877,391.128682 L3063.49877,391.128682 L3063.49877,391.128682 L3063.49877,391.128682 Z M3805.5795,444.227132 L3727.91557,444.227132 L3727.91557,606.864341 L3644.30607,606.864341 L3644.30607,160.168992 L3846.82685,160.168992 C3886.58781,160.168992 3923.74759,170.937209 3952.36062,199.9 C3980.23045,228.120155 3991.37838,263.395349 3991.37838,302.383721 C3991.37838,333.945736 3984.31802,365.136434 3963.88015,390.014729 C3946.41505,411.179845 3924.86238,426.403876 3897.73575,432.716279 L3890.30379,434.572868 L3989.89199,607.235659 L3893.27657,607.235659 L3805.9511,444.59845 L3805.5795,444.227132 L3805.5795,444.227132 L3805.5795,444.227132 L3805.5795,444.227132 Z M2639.87733,302.383721 L2639.87733,615.775969 L2555.15304,615.775969 L2555.15304,164.624806 L2645.07969,164.624806 L2860.97799,466.506202 L2860.97799,164.624806 L2945.70228,164.624806 L2945.70228,615.775969 L2861.72119,615.775969 L2639.87733,302.383721 L2639.87733,302.383721 L2639.87733,302.383721 L2639.87733,302.383721 L2639.87733,302.383721 Z M1772.93975,619.117829 L1772.93975,447.568992 C1772.93975,438.286047 1766.25099,429.745736 1756.58945,429.745736 L1567.81779,429.745736 C1558.15624,429.745736 1551.83908,438.286047 1551.46748,447.568992 L1550.35269,620.231783 C1550.35269,622.088372 1549.6095,623.573643 1548.4947,625.058915 C1547.00831,626.544186 1545.52192,627.286822 1543.29233,626.915504 C1519.51008,625.058915 1495.72782,623.202326 1471.94556,620.231783 C1468.60118,619.860465 1466,616.889922 1466,613.548062 L1466,170.937209 C1466,167.595349 1468.22959,164.624806 1471.94556,164.253488 C1496.09942,161.282946 1520.62487,159.055039 1544.77873,157.19845 C1546.63671,157.19845 1548.4947,157.569767 1549.98109,159.055039 C1551.46748,160.54031 1551.83908,162.025581 1551.83908,163.882171 L1551.83908,323.548837 C1551.83908,332.831783 1558.52784,341.372093 1568.18938,341.372093 L1756.96105,341.372093 C1766.62259,341.372093 1773.31135,332.460465 1773.31135,323.548837 L1773.31135,163.882171 C1773.31135,162.025581 1774.05454,160.168992 1775.16934,159.055039 C1776.65573,157.569767 1778.14212,156.827132 1780.37171,157.19845 C1804.89716,159.055039 1829.42261,161.282946 1853.94806,164.253488 C1857.29244,164.624806 1859.89363,167.595349 1859.89363,170.937209 L1859.89363,612.062791 C1859.89363,615.404651 1857.66404,618.375194 1853.94806,618.746512 C1829.42261,621.717054 1804.89716,624.316279 1780.37171,626.172868 C1778.51372,626.172868 1776.65573,625.80155 1775.16934,624.316279 C1773.68295,622.831008 1773.31135,621.345736 1773.31135,619.489147 L1772.93975,619.117829 L1772.93975,619.117829 L1772.93975,619.117829 L1772.93975,619.117829 Z M2099.57418,506.237209 C2127.07242,537.799225 2163.1174,551.909302 2204.73635,551.909302 C2246.3553,551.909302 2282.02868,537.799225 2309.52692,506.237209 C2337.76835,473.56124 2348.91628,433.830233 2348.91628,391.128682 C2348.91628,348.427132 2337.76835,308.696124 2309.52692,276.020155 C2282.02868,244.45814 2246.3553,230.348062 2204.73635,230.348062 C2163.1174,230.348062 2127.07242,244.45814 2099.57418,276.020155 C2071.33275,308.696124 2060.18482,348.427132 2060.18482,391.128682 C2060.18482,433.830233 2071.70435,473.56124 2099.94578,506.237209 L2099.57418,506.237209 L2099.57418,506.237209 L2099.57418,506.237209 L2099.57418,506.237209 Z M3193.18639,506.237209 C3220.68463,537.799225 3256.72961,551.909302 3298.34856,551.909302 C3339.96751,551.909302 3375.64089,537.799225 3403.13913,506.237209 C3431.38056,473.56124 3442.52849,433.830233 3442.52849,391.128682 C3442.52849,348.427132 3431.38056,308.696124 3403.13913,276.020155 C3375.64089,244.45814 3339.96751,230.348062 3298.34856,230.348062 C3256.72961,230.348062 3220.68463,244.45814 3193.18639,276.020155 C3164.94496,308.696124 3153.79703,348.427132 3153.79703,391.128682 C3153.79703,433.830233 3165.31656,473.56124 3193.55799,506.237209 L3193.18639,506.237209 L3193.18639,506.237209 L3193.18639,506.237209 L3193.18639,506.237209 Z M3727.91557,234.803876 L3727.91557,369.592248 L3833.07774,369.592248 C3852.02922,369.592248 3869.49432,364.393798 3883.98663,351.397674 C3898.47894,338.40155 3904.42451,320.949612 3904.42451,301.269767 C3904.42451,282.332558 3898.10734,265.623256 3883.98663,252.627132 C3869.86591,239.631008 3852.02922,234.432558 3833.07774,234.432558 L3727.91557,234.432558 L3727.91557,234.803876 L3727.91557,234.803876 L3727.91557,234.803876 L3727.91557,234.803876 Z" id="Shape" fill="url(#linearGradient-1)"></path>
                        <path d="M995.408997,999.252907 L866.420636,984.137786 C846.071327,981.710541 827.363092,993.957098 821.127013,1013.59572 L781.303635,1138.7092 C776.927439,1152.6107 766.86219,1162.54034 752.967769,1166.73286 C739.073348,1170.92537 725.288333,1168.16714 714.129034,1158.89947 L612.929514,1076.04213 C597.065806,1063.02327 574.856614,1063.1336 559.10231,1076.26279 L458.778029,1159.78211 C447.618731,1169.04977 433.833715,1171.91834 419.939295,1167.94648 C406.044874,1163.86429 395.87022,1154.04498 391.384619,1140.14348 L350.904812,1015.36099 C344.559328,995.722368 325.741688,983.696469 305.392379,986.123715 L176.841637,1001.90081 C162.400192,1003.66608 149.271606,998.590931 139.753381,987.557996 C130.235156,976.525061 126.953009,962.733893 130.672775,948.501407 L163.713051,821.07101 C168.855081,801.101398 159.555665,780.690468 141.175644,771.753791 L24.0030109,714.38253 C10.9838294,707.983428 2.66905808,696.509175 0.48096035,682.056031 C-1.59773249,667.602886 3.10667762,654.253035 13.7189516,644.323394 L109.338822,555.397939 C124.327292,541.386112 127.500033,519.209913 116.778355,501.667546 L49.1661348,389.683258 C41.6171976,377.216042 40.7419585,362.983556 46.7592273,349.633705 C52.7764961,336.283853 63.9357945,327.678164 78.2678346,325.140589 L206.052742,302.96439 C226.292646,299.433851 240.843496,282.443131 241.281115,261.811543 L244.453857,130.29896 C244.782072,115.735486 251.67458,103.378599 263.818522,95.4348862 C275.962464,87.4911732 289.96629,86.2775503 303.313686,91.7940177 L423.768466,142.545518 C442.586106,150.489231 463.701249,144.090129 475.188762,127.099409 L548.380631,18.7559892 C556.476593,6.73009024 568.94875,0.110329348 583.390195,0 C597.83164,0 610.303797,6.61976089 618.509164,18.5353305 L692.138652,126.658092 C703.73557,143.648811 725.178928,149.937584 743.996568,141.773212 L863.13849,90.0287482 C876.485886,84.2916221 890.489711,85.3949155 902.743059,93.2282993 C914.996406,101.061683 921.888914,113.528899 922.326533,128.092373 L926.046299,258.94298 C926.593324,279.574568 941.253579,296.454959 961.384078,299.985498 L1089.71601,322.051368 C1103.93864,324.478613 1115.09794,333.194632 1121.22462,346.434153 C1127.24189,359.673675 1126.47605,373.906161 1119.03652,386.373378 L1051.97132,498.688654 C1041.35905,516.34135 1044.6412,538.627878 1059.84848,552.529376 L1156.01537,640.572196 C1166.73705,650.391508 1171.55086,663.741359 1169.58158,678.194504 C1167.61229,692.647648 1159.40692,704.1219 1146.38774,710.631332 L1029.43392,769.105887 C1011.0539,778.263222 1001.97329,798.784481 1007.33413,818.643764 L1041.35905,945.191526 C1045.18822,959.313683 1042.01548,973.215181 1032.49725,984.358445 C1022.97903,995.501709 1009.85044,1000.68719 995.408997,998.921919 L995.408997,999.252907 L995.408997,999.252907 L995.408997,999.252907 L995.408997,999.252907 Z" id="path-3" fill="url(#linearGradient-2)"></path>
                        <path d="M722.947814,851.677637 L722.947814,654.077774 C722.947814,646.244391 716.602331,639.845289 708.834584,639.845289 L474.379913,639.845289 C466.612166,639.845289 460.266682,646.134061 460.266682,653.967445 L458.735014,852.670601 C458.735014,856.752787 457.203345,860.283326 454.249413,863.04156 C451.295482,865.799794 447.68512,867.123746 443.746544,866.792758 C413.769605,864.80683 384.120881,862.269255 354.690967,859.180033 C347.470244,858.407727 342,852.339613 342,844.947547 L342,335.446617 C342,328.16488 347.360839,322.096766 354.581562,321.214131 C384.449096,317.90425 414.754249,315.146017 445.278213,313.049759 C449.326194,312.718771 452.936555,314.042723 455.890487,316.911286 C458.844419,319.66952 460.376087,323.200059 460.376087,327.392574 L460.376087,511.201269 C460.376087,519.034652 466.72157,525.433754 474.489317,525.433754 L708.834584,525.433754 C716.602331,525.433754 722.947814,519.034652 722.947814,511.201269 L722.947814,327.282245 C722.947814,323.200059 724.479483,319.66952 727.433415,316.911286 C730.387347,314.153053 733.997708,312.8291 738.045689,313.049759 C768.897867,315.146017 799.42183,317.90425 829.617579,321.214131 C836.838301,321.986436 842.199141,328.05455 842.199141,335.446617 L842.199141,843.292607 C842.199141,850.574344 836.838301,856.642458 829.617579,857.525093 C799.42183,861.055632 768.897867,863.924195 738.045689,866.130782 C733.997708,866.46177 730.387347,865.137818 727.433415,862.379584 C724.479483,859.62135 722.947814,856.090811 722.947814,851.898296 L722.947814,851.677637 L722.947814,851.677637 L722.947814,851.677637 L722.947814,851.677637 Z" id="Shape" fill="#FFFFFF"></path>
                        <path d="M617.973858,309.528729 L618.468223,870.553465 C582.255927,872.429064 549.998558,873.09104 506,869.450171 L506.86514,310.852681 C543.448211,307.65313 580.525647,307.101483 617.973858,309.4184 L617.973858,309.528729 L617.973858,309.528729 L617.973858,309.528729 L617.973858,309.528729 Z" id="Shape" fill="#FEFEFE"></path>
                        <path d="M2184.11,1068 L2034.77,1068 L2034.77,814.54 L2066.31,814.54 L2066.31,1039.88 L2184.11,1039.88 L2184.11,1068 Z M2252.89,852.92 C2249.34332,856.466684 2244.91003,858.24 2239.59,858.24 C2234.26997,858.24 2229.71002,856.403352 2225.91,852.73 C2222.10998,849.056648 2220.21,844.560027 2220.21,839.24 C2220.21,833.919973 2222.10998,829.360019 2225.91,825.56 C2229.71002,821.759981 2234.26997,819.86 2239.59,819.86 C2244.91003,819.86 2249.40665,821.759981 2253.08,825.56 C2256.75335,829.360019 2258.59,833.919973 2258.59,839.24 C2258.59,844.560027 2256.69002,849.119981 2252.89,852.92 L2252.89,852.92 Z M2253.65,1068 L2225.15,1068 L2225.15,884.46 L2253.65,884.46 L2253.65,1068 Z M2384.37,1142.48 C2368.40992,1142.48 2354.73006,1140.45335 2343.33,1136.4 C2331.92994,1132.34665 2320.91005,1125.12672 2310.27,1114.74 L2324.71,1094.22 C2338.6434,1110.68675 2358.52987,1118.92 2384.37,1118.92 C2401.09008,1118.92 2415.14994,1114.55004 2426.55,1105.81 C2437.95006,1097.06996 2443.65,1083.58009 2443.65,1065.34 L2443.65,1037.6 C2436.55663,1047.48005 2427.56339,1055.39664 2416.67,1061.35 C2405.77661,1067.30336 2394.1234,1070.28 2381.71,1070.28 C2357.38988,1070.28 2337.69341,1061.73009 2322.62,1044.63 C2307.54659,1027.52991 2300.01,1004.41348 2300.01,975.28 C2300.01,946.146521 2307.54659,922.966753 2322.62,905.74 C2337.69341,888.513247 2357.38988,879.9 2381.71,879.9 C2407.04346,879.9 2427.68992,890.666559 2443.65,912.2 L2443.65,884.46 L2472.15,884.46 L2472.15,1065.34 C2472.15,1092.19347 2463.85342,1111.76327 2447.26,1124.05 C2430.66658,1136.33673 2409.70346,1142.48 2384.37,1142.48 L2384.37,1142.48 Z M2388.93,1044.82 C2399.82339,1044.82 2410.33662,1041.97003 2420.47,1036.27 C2430.60338,1030.56997 2438.32997,1023.54004 2443.65,1015.18 L2443.65,934.62 C2438.32997,926.513293 2430.60338,919.610028 2420.47,913.91 C2410.33662,908.209971 2399.82339,905.36 2388.93,905.36 C2370.68991,905.36 2356.25005,911.819935 2345.61,924.74 C2334.96995,937.660065 2329.65,954.506563 2329.65,975.28 C2329.65,995.800103 2334.96995,1012.51994 2345.61,1025.44 C2356.25005,1038.36006 2370.68991,1044.82 2388.93,1044.82 L2388.93,1044.82 Z M2681.91,1068 L2653.41,1068 L2653.41,947.16 C2653.41,931.706589 2649.86337,920.876698 2642.77,914.67 C2635.67663,908.463302 2625.41673,905.36 2611.99,905.36 C2601.60328,905.36 2591.40672,908.146639 2581.4,913.72 C2571.39328,919.293361 2563.60336,926.006627 2558.03,933.86 L2558.03,1068 L2529.53,1068 L2529.53,814.54 L2558.03,814.54 L2558.03,911.06 C2564.87003,902.446624 2574.24327,895.10003 2586.15,889.02 C2598.05673,882.93997 2610.46994,879.9 2623.39,879.9 C2662.40353,879.9 2681.91,899.406472 2681.91,938.42 L2681.91,1068 Z M2785.65,1072.56 C2758.28986,1072.56 2744.61,1058.24681 2744.61,1029.62 L2744.61,909.54 L2714.21,909.54 L2714.21,884.46 L2744.61,884.46 L2744.61,834.3 L2773.49,834.3 L2773.49,884.46 L2810.73,884.46 L2810.73,909.54 L2773.49,909.54 L2773.49,1023.54 C2773.49,1030.63337 2775.07332,1036.33331 2778.24,1040.64 C2781.40668,1044.94669 2785.9033,1047.1 2791.73,1047.1 C2799.83671,1047.1 2806.29664,1044.44003 2811.11,1039.12 L2819.47,1060.78 C2811.10996,1068.63337 2799.83674,1072.56 2785.65,1072.56 L2785.65,1072.56 Z M3178.19,1068 L3143.99,1068 L3088.13,863.56 L3032.27,1068 L2998.07,1068 L2925.87,814.54 L2960.83,814.54 L3017.07,1025.82 L3075.21,814.54 L3101.43,814.54 L3159.57,1025.82 L3215.43,814.54 L3250.77,814.54 L3178.19,1068 Z M3430.89,1068 L3402.39,1068 L3402.39,1040.64 C3386.68325,1061.92011 3366.03679,1072.56 3340.45,1072.56 C3316.12988,1072.56 3296.43341,1063.88342 3281.36,1046.53 C3266.28659,1029.17658 3258.75,1005.80681 3258.75,976.42 C3258.75,947.286521 3266.34992,923.916755 3281.55,906.31 C3296.75008,888.703245 3316.38321,879.9 3340.45,879.9 C3365.78346,879.9 3386.42992,890.666559 3402.39,912.2 L3402.39,884.46 L3430.89,884.46 L3430.89,1068 Z M3347.67,1047.1 C3358.56339,1047.1 3369.13995,1044.25003 3379.4,1038.55 C3389.66005,1032.84997 3397.32331,1025.94671 3402.39,1017.84 L3402.39,935 C3397.32331,926.639958 3389.66005,919.610028 3379.4,913.91 C3369.13995,908.209971 3358.56339,905.36 3347.67,905.36 C3329.42991,905.36 3314.99005,912.009933 3304.35,925.31 C3293.70995,938.610067 3288.39,955.646563 3288.39,976.42 C3288.39,997.193437 3293.70995,1014.1666 3304.35,1027.34 C3314.99005,1040.5134 3329.42991,1047.1 3347.67,1047.1 L3347.67,1047.1 Z M3528.55,1072.56 C3515.12327,1072.56 3504.99003,1068.8867 3498.15,1061.54 C3491.30997,1054.1933 3487.89,1043.5534 3487.89,1029.62 L3487.89,814.54 L3516.39,814.54 L3516.39,1023.54 C3516.39,1030.63337 3517.97332,1036.33331 3521.14,1040.64 C3524.30668,1044.94669 3528.92997,1047.1 3535.01,1047.1 C3543.37004,1047.1 3549.70331,1044.44003 3554.01,1039.12 L3562.75,1060.78 C3554.13662,1068.63337 3542.73674,1072.56 3528.55,1072.56 L3528.55,1072.56 Z M3630.77,1072.56 C3617.34327,1072.56 3607.21003,1068.8867 3600.37,1061.54 C3593.52997,1054.1933 3590.11,1043.5534 3590.11,1029.62 L3590.11,814.54 L3618.61,814.54 L3618.61,1023.54 C3618.61,1030.63337 3620.19332,1036.33331 3623.36,1040.64 C3626.52668,1044.94669 3631.14997,1047.1 3637.23,1047.1 C3645.59004,1047.1 3651.92331,1044.44003 3656.23,1039.12 L3664.97,1060.78 C3656.35662,1068.63337 3644.95674,1072.56 3630.77,1072.56 L3630.77,1072.56 Z M3775.55,1072.56 C3747.93653,1072.56 3725.39009,1063.63009 3707.91,1045.77 C3690.42991,1027.90991 3681.69,1004.66681 3681.69,976.04 C3681.69,949.186532 3690.30325,926.450093 3707.53,907.83 C3724.75675,889.209907 3746.28987,879.9 3772.13,879.9 C3799.2368,879.9 3820.70659,889.209907 3836.54,907.83 C3852.37341,926.450093 3860.29,949.946525 3860.29,978.32 L3860.29,985.54 L3712.09,985.54 C3713.35667,1003.52676 3719.87994,1018.59994 3731.66,1030.76 C3743.44006,1042.92006 3758.8299,1049 3777.83,1049 C3800.63011,1049 3819.62992,1041.14675 3834.83,1025.44 L3848.51,1044.06 C3829.00324,1063.0601 3804.68348,1072.56 3775.55,1072.56 L3775.55,1072.56 Z M3832.17,964.26 C3831.91667,948.806589 3826.59672,934.810063 3816.21,922.27 C3805.82328,909.729937 3791.00343,903.46 3771.75,903.46 C3753.50991,903.46 3739.13339,909.666605 3728.62,922.08 C3718.10661,934.493395 3712.47,948.553255 3711.71,964.26 L3832.17,964.26 Z M3953.01,1072.56 C3925.64986,1072.56 3911.97,1058.24681 3911.97,1029.62 L3911.97,909.54 L3881.57,909.54 L3881.57,884.46 L3911.97,884.46 L3911.97,834.3 L3940.85,834.3 L3940.85,884.46 L3978.09,884.46 L3978.09,909.54 L3940.85,909.54 L3940.85,1023.54 C3940.85,1030.63337 3942.43332,1036.33331 3945.6,1040.64 C3948.76668,1044.94669 3953.2633,1047.1 3959.09,1047.1 C3967.19671,1047.1 3973.65664,1044.44003 3978.47,1039.12 L3986.83,1060.78 C3978.46996,1068.63337 3967.19674,1072.56 3953.01,1072.56 L3953.01,1072.56 Z" id="Light-Wallet" fill="#FFFFFF"></path>
                    </g>
                </g>
            </g>
        </g>
    </g>
</svg>