<?xml version="1.0" encoding="UTF-8"?>
<svg width="3896px" height="1062px" viewBox="0 0 3896 1062" version="1.1" xmlns="http://www.w3.org/2000/svg" xmlns:xlink="http://www.w3.org/1999/xlink">
    <!-- Generator: Sketch 3.8.1 (29687) - http://www.bohemiancoding.com/sketch -->
    <title>Group 3</title>
    <desc>Created with Sketch.</desc>
    <defs>
        <linearGradient x1="73.2891502%" y1="6.07373046%" x2="31.2890636%" y2="100%" id="linearGradient-1">
            <stop stop-color="#FFEC6F" offset="0%"></stop>
            <stop stop-color="#E3CA2B" offset="100%"></stop>
        </linearGradient>
        <path d="M909.9,906.6 L792,892.9 C773.4,890.7 756.3,901.8 750.6,919.6 L714.2,1033 C710.2,1045.6 701,1054.6 688.3,1058.4 C675.6,1062.2 663,1059.7 652.8,1051.3 L560.3,976.2 C545.8,964.4 525.5,964.5 511.1,976.4 L419.4,1052.1 C409.2,1060.5 396.6,1063.1 383.9,1059.5 C371.2,1055.8 361.9,1046.9 357.8,1034.3 L320.8,921.2 C315,903.4 297.8,892.5 279.2,894.7 L161.7,909 C148.5,910.6 136.5,906 127.8,896 C119.1,886 116.1,873.5 119.5,860.6 L149.7,745.1 C154.4,727 145.9,708.5 129.1,700.4 L22,648.4 C10.1,642.6 2.5,632.2 0.5,619.1 C-1.4,606 2.9,593.9 12.6,584.9 L100,504.3 C113.7,491.6 116.6,471.5 106.8,455.6 L45,354.1 C38.1,342.8 37.3,329.9 42.8,317.8 C48.3,305.7 58.5,297.9 71.6,295.6 L188.4,275.5 C206.9,272.3 220.2,256.9 220.6,238.2 L223.5,119 C223.8,105.8 230.1,94.6 241.2,87.4 C252.3,80.2 265.1,79.1 277.3,84.1 L387.4,130.1 C404.6,137.3 423.9,131.5 434.4,116.1 L501.3,17.9 C508.7,7 520.1,1 533.3,0.9 C546.5,0.9 557.9,6.9 565.4,17.7 L632.7,115.7 C643.3,131.1 662.9,136.8 680.1,129.4 L789,82.5 C801.2,77.3 814,78.3 825.2,85.4 C836.4,92.5 842.7,103.8 843.1,117 L846.5,235.6 C847,254.3 860.4,269.6 878.8,272.8 L996.1,292.8 C1009.1,295 1019.3,302.9 1024.9,314.9 C1030.4,326.9 1029.7,339.8 1022.9,351.1 L961.6,452.9 C951.9,468.9 954.9,489.1 968.8,501.7 L1056.7,581.5 C1066.5,590.4 1070.9,602.5 1069.1,615.6 C1067.3,628.7 1059.8,639.1 1047.9,645 L941,698 C924.2,706.3 915.9,724.9 920.8,742.9 L951.9,857.6 C955.4,870.4 952.5,883 943.8,893.1 C935.1,903.2 923.1,907.9 909.9,906.3 L909.9,906.6 Z" id="path-2"></path>
        <filter x="-50%" y="-50%" width="200%" height="200%" filterUnits="objectBoundingBox" id="filter-3">
            <feGaussianBlur stdDeviation="1" in="SourceAlpha" result="shadowBlurInner1"></feGaussianBlur>
            <feOffset dx="-5" dy="5" in="shadowBlurInner1" result="shadowOffsetInner1"></feOffset>
            <feComposite in="shadowOffsetInner1" in2="SourceAlpha" operator="arithmetic" k2="-1" k3="1" result="shadowInnerInner1"></feComposite>
            <feColorMatrix values="0 0 0 0 1   0 0 0 0 1   0 0 0 0 1  0 0 0 0.601760643 0" type="matrix" in="shadowInnerInner1" result="shadowMatrixInner1"></feColorMatrix>
            <feGaussianBlur stdDeviation="1" in="SourceAlpha" result="shadowBlurInner2"></feGaussianBlur>
            <feOffset dx="5" dy="-5" in="shadowBlurInner2" result="shadowOffsetInner2"></feOffset>
            <feComposite in="shadowOffsetInner2" in2="SourceAlpha" operator="arithmetic" k2="-1" k3="1" result="shadowInnerInner2"></feComposite>
            <feColorMatrix values="0 0 0 0 0   0 0 0 0 0   0 0 0 0 0  0 0 0 0.0683310688 0" type="matrix" in="shadowInnerInner2" result="shadowMatrixInner2"></feColorMatrix>
            <feMerge>
                <feMergeNode in="shadowMatrixInner1"></feMergeNode>
                <feMergeNode in="shadowMatrixInner2"></feMergeNode>
            </feMerge>
        </filter>
        <filter x="-50%" y="-50%" width="200%" height="200%" filterUnits="objectBoundingBox" id="filter-4">
            <feOffset dx="4" dy="5" in="SourceAlpha" result="shadowOffsetOuter1"></feOffset>
            <feGaussianBlur stdDeviation="10" in="shadowOffsetOuter1" result="shadowBlurOuter1"></feGaussianBlur>
            <feColorMatrix values="0 0 0 0 0   0 0 0 0 0   0 0 0 0 0  0 0 0 0.157297328 0" type="matrix" in="shadowBlurOuter1" result="shadowMatrixOuter1"></feColorMatrix>
            <feMerge>
                <feMergeNode in="shadowMatrixOuter1"></feMergeNode>
                <feMergeNode in="SourceGraphic"></feMergeNode>
            </feMerge>
        </filter>
    </defs>
    <g id="Page-1" stroke="none" stroke-width="1" fill="none" fill-rule="evenodd">
        <g id="Group-3">
            <g id="Group-2">
                <g id="token-logo">
                    <g id="Camada_x0020_1">
                        <g id="Shape">
                            <use fill="url(#linearGradient-1)" fill-rule="evenodd" xlink:href="#path-2"></use>
                            <use fill="black" fill-opacity="1" filter="url(#filter-3)" xlink:href="#path-2"></use>
                        </g>
                        <g id="Group" filter="url(#filter-4)" transform="translate(312.000000, 279.000000)">
                            <path d="M348.2,493.9 L348.2,314.8 C348.2,307.7 342.4,301.9 335.3,301.9 L121,301.9 C113.9,301.9 108.1,307.6 108.1,314.7 L106.7,494.8 C106.7,498.5 105.3,501.7 102.6,504.2 C99.9,506.7 96.6,507.9 93,507.6 C65.6,505.8 38.5,503.5 11.6,500.7 C5,500 0,494.5 0,487.8 L0,26 C0,19.4 4.9,13.9 11.5,13.1 C38.8,10.1 66.5,7.6 94.4,5.7 C98.1,5.4 101.4,6.6 104.1,9.2 C106.8,11.7 108.2,14.9 108.2,18.7 L108.2,185.3 C108.2,192.4 114,198.2 121.1,198.2 L335.3,198.2 C342.4,198.2 348.2,192.4 348.2,185.3 L348.2,18.6 C348.2,14.9 349.6,11.7 352.3,9.2 C355,6.7 358.3,5.5 362,5.7 C390.2,7.6 418.1,10.1 445.7,13.1 C452.3,13.8 457.2,19.3 457.2,26 L457.2,486.3 C457.2,492.9 452.3,498.4 445.7,499.2 C418.1,502.4 390.2,505 362,507 C358.3,507.3 355,506.1 352.3,503.6 C349.6,501.1 348.2,497.9 348.2,494.1 L348.2,493.9 Z" id="Shape" fill="#FFFFFF"></path>
                            <path d="M252.548132,2.2 L253,510.7 C219.900659,512.4 190.416264,513 150.2,509.7 L150.990769,3.4 C184.429011,0.5 218.319121,1.02140518e-14 252.548132,2.1 L252.548132,2.2 Z" id="Shape" fill="#FEFEFE"></path>
                        </g>
                    </g>
                </g>
            </g>
            <g id="token---TIPO-AZUL" transform="translate(1370.000000, 291.000000)" fill="#3188E6">
                <g id="Camada_x0020_23">
                    <path d="M503.886563,239.128682 C503.886563,173.405426 523.209647,114.737209 570.030965,67.2085271 C616.109087,20.4224806 673.335142,2.84217094e-14 738.36475,2.84217094e-14 C803.394358,2.84217094e-14 860.248816,20.7937984 906.326938,67.579845 C952.776658,115.108527 972.47134,173.405426 972.47134,239.128682 C972.47134,304.851938 952.776658,363.148837 906.326938,410.677519 C860.248816,457.463566 803.394358,478.257364 738.36475,478.257364 C673.335142,478.257364 616.109087,457.834884 570.030965,411.048837 C523.581245,363.520155 503.886563,304.851938 503.886563,239.128682 L503.886563,239.128682 Z M1597.49877,239.128682 C1597.49877,173.405426 1616.82186,114.737209 1663.64317,67.2085271 C1709.7213,20.4224806 1766.94735,2.84217094e-14 1831.97696,2.84217094e-14 C1897.00657,2.84217094e-14 1953.86103,20.7937984 1999.93915,67.579845 C2046.38887,115.108527 2066.08355,173.405426 2066.08355,239.128682 C2066.08355,304.851938 2046.38887,363.148837 1999.93915,410.677519 C1954.23262,457.463566 1897.00657,478.257364 1831.97696,478.257364 C1766.94735,478.257364 1709.7213,457.834884 1663.64317,411.048837 C1617.19345,363.520155 1597.49877,304.851938 1597.49877,239.128682 L1597.49877,239.128682 Z M2339.5795,292.227132 L2261.91557,292.227132 L2261.91557,454.864341 L2178.30607,454.864341 L2178.30607,8.16899225 L2380.82685,8.16899225 C2420.58781,8.16899225 2457.74759,18.9372093 2486.36062,47.9 C2514.23045,76.120155 2525.37838,111.395349 2525.37838,150.383721 C2525.37838,181.945736 2518.31802,213.136434 2497.88015,238.014729 C2480.41505,259.179845 2458.86238,274.403876 2431.73575,280.716279 L2424.30379,282.572868 L2523.89199,455.235659 L2427.27657,455.235659 L2339.9511,292.59845 L2339.5795,292.227132 Z M1173.87733,150.383721 L1173.87733,463.775969 L1089.15304,463.775969 L1089.15304,12.6248062 L1179.07969,12.6248062 L1394.97799,314.506202 L1394.97799,12.6248062 L1479.70228,12.6248062 L1479.70228,463.775969 L1395.72119,463.775969 L1173.87733,150.383721 L1173.87733,150.383721 Z M306.93975,467.117829 L306.93975,295.568992 C306.93975,286.286047 300.250991,277.745736 290.589449,277.745736 L101.817786,277.745736 C92.1562446,277.745736 85.8390827,286.286047 85.4674849,295.568992 L84.3526917,468.231783 C84.3526917,470.088372 83.6094961,471.573643 82.4947029,473.058915 C81.0083118,474.544186 79.5219208,475.286822 77.2923342,474.915504 C53.5100775,473.058915 29.7278209,471.202326 5.94556417,468.231783 C2.60118432,467.860465 -5.40012479e-13,464.889922 -5.40012479e-13,461.548062 L-5.40012479e-13,18.9372093 C-5.40012479e-13,15.5953488 2.22958656,12.6248062 5.94556417,12.2534884 C30.0994186,9.28294574 54.6248708,7.05503876 78.7787253,5.19844961 C80.6367141,5.19844961 82.4947029,5.56976744 83.9810939,7.05503876 C85.4674849,8.54031008 85.8390827,10.0255814 85.8390827,11.8821705 L85.8390827,171.548837 C85.8390827,180.831783 92.5278424,189.372093 102.189384,189.372093 L290.961047,189.372093 C300.622588,189.372093 307.311348,180.460465 307.311348,171.548837 L307.311348,11.8821705 C307.311348,10.0255814 308.054544,8.16899225 309.169337,7.05503876 C310.655728,5.56976744 312.142119,4.82713178 314.371705,5.19844961 C338.897158,7.05503876 363.42261,9.28294574 387.948062,12.2534884 C391.292442,12.6248062 393.893626,15.5953488 393.893626,18.9372093 L393.893626,460.062791 C393.893626,463.404651 391.66404,466.375194 387.948062,466.746512 C363.42261,469.717054 338.897158,472.316279 314.371705,474.172868 C312.513717,474.172868 310.655728,473.80155 309.169337,472.316279 C307.682946,470.831008 307.311348,469.345736 307.311348,467.489147 L306.93975,467.117829 Z M633.574182,354.237209 C661.072416,385.799225 697.117399,399.909302 738.736348,399.909302 C780.355297,399.909302 816.028682,385.799225 843.526917,354.237209 C871.768346,321.56124 882.916279,281.830233 882.916279,239.128682 C882.916279,196.427132 871.768346,156.696124 843.526917,124.020155 C816.028682,92.4581395 780.355297,78.348062 738.736348,78.348062 C697.117399,78.348062 661.072416,92.4581395 633.574182,124.020155 C605.332752,156.696124 594.184819,196.427132 594.184819,239.128682 C594.184819,281.830233 605.70435,321.56124 633.94578,354.237209 L633.574182,354.237209 Z M1727.18639,354.237209 C1754.68463,385.799225 1790.72961,399.909302 1832.34856,399.909302 C1873.96751,399.909302 1909.64089,385.799225 1937.13913,354.237209 C1965.38056,321.56124 1976.52849,281.830233 1976.52849,239.128682 C1976.52849,196.427132 1965.38056,156.696124 1937.13913,124.020155 C1909.64089,92.4581395 1873.96751,78.348062 1832.34856,78.348062 C1790.72961,78.348062 1754.68463,92.4581395 1727.18639,124.020155 C1698.94496,156.696124 1687.79703,196.427132 1687.79703,239.128682 C1687.79703,281.830233 1699.31656,321.56124 1727.55799,354.237209 L1727.18639,354.237209 Z M2261.91557,82.803876 L2261.91557,217.592248 L2367.07774,217.592248 C2386.02922,217.592248 2403.49432,212.393798 2417.98663,199.397674 C2432.47894,186.40155 2438.42451,168.949612 2438.42451,149.269767 C2438.42451,130.332558 2432.10734,113.623256 2417.98663,100.627132 C2403.86591,87.6310078 2386.02922,82.4325581 2367.07774,82.4325581 L2261.91557,82.4325581 L2261.91557,82.803876 Z" id="Shape"></path>
                </g>
            </g>
        </g>
    </g>
</svg>