<?xml version="1.0" encoding="UTF-8"?>
<svg width="2500px" height="2500px" viewBox="0 0 2500 2500" version="1.1" xmlns="http://www.w3.org/2000/svg" xmlns:xlink="http://www.w3.org/1999/xlink">
    <!-- Generator: Sketch 3.8.1 (29687) - http://www.bohemiancoding.com/sketch -->
    <title>qr</title>
    <desc>Created with Sketch.</desc>
    <defs></defs>
    <g id="Page-1" stroke="none" stroke-width="1" fill="none" fill-rule="evenodd">
        <g id="qr">
            <rect id="Rectangle-path" fill="#FFFFFF" x="0" y="0" width="2500" height="2500"></rect>
            <rect id="Rectangle-path" fill="#000000" x="303.030303" y="303.030303" width="75.7575758" height="75.7575758"></rect>
            <rect id="Rectangle-path" fill="#000000" x="378.787879" y="303.030303" width="75.7575758" height="75.7575758"></rect>
            <rect id="Rectangle-path" fill="#000000" x="454.545455" y="303.030303" width="75.7575758" height="75.7575758"></rect>
            <rect id="Rectangle-path" fill="#000000" x="530.30303" y="303.030303" width="75.7575758" height="75.7575758"></rect>
            <rect id="Rectangle-path" fill="#000000" x="606.060606" y="303.030303" width="75.7575758" height="75.7575758"></rect>
            <rect id="Rectangle-path" fill="#000000" x="681.818182" y="303.030303" width="75.7575758" height="75.7575758"></rect>
            <rect id="Rectangle-path" fill="#000000" x="757.575758" y="303.030303" width="75.7575758" height="75.7575758"></rect>
            <rect id="Rectangle-path" fill="#000000" x="984.848485" y="303.030303" width="75.7575758" height="75.7575758"></rect>
            <rect id="Rectangle-path" fill="#000000" x="1515.15152" y="303.030303" width="75.7575758" height="75.7575758"></rect>
            <rect id="Rectangle-path" fill="#000000" x="1666.66667" y="303.030303" width="75.7575758" height="75.7575758"></rect>
            <rect id="Rectangle-path" fill="#000000" x="1742.42424" y="303.030303" width="75.7575758" height="75.7575758"></rect>
            <rect id="Rectangle-path" fill="#000000" x="1818.18182" y="303.030303" width="75.7575758" height="75.7575758"></rect>
            <rect id="Rectangle-path" fill="#000000" x="1893.93939" y="303.030303" width="75.7575758" height="75.7575758"></rect>
            <rect id="Rectangle-path" fill="#000000" x="1969.69697" y="303.030303" width="75.7575758" height="75.7575758"></rect>
            <rect id="Rectangle-path" fill="#000000" x="2045.45455" y="303.030303" width="75.7575758" height="75.7575758"></rect>
            <rect id="Rectangle-path" fill="#000000" x="2121.21212" y="303.030303" width="75.7575758" height="75.7575758"></rect>
            <rect id="Rectangle-path" fill="#000000" x="303.030303" y="378.787879" width="75.7575758" height="75.7575758"></rect>
            <rect id="Rectangle-path" fill="#000000" x="757.575758" y="378.787879" width="75.7575758" height="75.7575758"></rect>
            <rect id="Rectangle-path" fill="#000000" x="909.090909" y="378.787879" width="75.7575758" height="75.7575758"></rect>
            <rect id="Rectangle-path" fill="#000000" x="984.848485" y="378.787879" width="75.7575758" height="75.7575758"></rect>
            <rect id="Rectangle-path" fill="#000000" x="1136.36364" y="378.787879" width="75.7575758" height="75.7575758"></rect>
            <rect id="Rectangle-path" fill="#000000" x="1212.12121" y="378.787879" width="75.7575758" height="75.7575758"></rect>
            <rect id="Rectangle-path" fill="#000000" x="1439.39394" y="378.787879" width="75.7575758" height="75.7575758"></rect>
            <rect id="Rectangle-path" fill="#000000" x="1666.66667" y="378.787879" width="75.7575758" height="75.7575758"></rect>
            <rect id="Rectangle-path" fill="#000000" x="2121.21212" y="378.787879" width="75.7575758" height="75.7575758"></rect>
            <rect id="Rectangle-path" fill="#000000" x="303.030303" y="454.545455" width="75.7575758" height="75.7575758"></rect>
            <rect id="Rectangle-path" fill="#000000" x="454.545455" y="454.545455" width="75.7575758" height="75.7575758"></rect>
            <rect id="Rectangle-path" fill="#000000" x="530.30303" y="454.545455" width="75.7575758" height="75.7575758"></rect>
            <rect id="Rectangle-path" fill="#000000" x="606.060606" y="454.545455" width="75.7575758" height="75.7575758"></rect>
            <rect id="Rectangle-path" fill="#000000" x="757.575758" y="454.545455" width="75.7575758" height="75.7575758"></rect>
            <rect id="Rectangle-path" fill="#000000" x="984.848485" y="454.545455" width="75.7575758" height="75.7575758"></rect>
            <rect id="Rectangle-path" fill="#000000" x="1060.60606" y="454.545455" width="75.7575758" height="75.7575758"></rect>
            <rect id="Rectangle-path" fill="#000000" x="1136.36364" y="454.545455" width="75.7575758" height="75.7575758"></rect>
            <rect id="Rectangle-path" fill="#000000" x="1363.63636" y="454.545455" width="75.7575758" height="75.7575758"></rect>
            <rect id="Rectangle-path" fill="#000000" x="1666.66667" y="454.545455" width="75.7575758" height="75.7575758"></rect>
            <rect id="Rectangle-path" fill="#000000" x="1818.18182" y="454.545455" width="75.7575758" height="75.7575758"></rect>
            <rect id="Rectangle-path" fill="#000000" x="1893.93939" y="454.545455" width="75.7575758" height="75.7575758"></rect>
            <rect id="Rectangle-path" fill="#000000" x="1969.69697" y="454.545455" width="75.7575758" height="75.7575758"></rect>
            <rect id="Rectangle-path" fill="#000000" x="2121.21212" y="454.545455" width="75.7575758" height="75.7575758"></rect>
            <rect id="Rectangle-path" fill="#000000" x="303.030303" y="530.30303" width="75.7575758" height="75.7575758"></rect>
            <rect id="Rectangle-path" fill="#000000" x="454.545455" y="530.30303" width="75.7575758" height="75.7575758"></rect>
            <rect id="Rectangle-path" fill="#000000" x="530.30303" y="530.30303" width="75.7575758" height="75.7575758"></rect>
            <rect id="Rectangle-path" fill="#000000" x="606.060606" y="530.30303" width="75.7575758" height="75.7575758"></rect>
            <rect id="Rectangle-path" fill="#000000" x="757.575758" y="530.30303" width="75.7575758" height="75.7575758"></rect>
            <rect id="Rectangle-path" fill="#000000" x="909.090909" y="530.30303" width="75.7575758" height="75.7575758"></rect>
            <rect id="Rectangle-path" fill="#000000" x="984.848485" y="530.30303" width="75.7575758" height="75.7575758"></rect>
            <rect id="Rectangle-path" fill="#000000" x="1136.36364" y="530.30303" width="75.7575758" height="75.7575758"></rect>
            <rect id="Rectangle-path" fill="#000000" x="1287.87879" y="530.30303" width="75.7575758" height="75.7575758"></rect>
            <rect id="Rectangle-path" fill="#000000" x="1363.63636" y="530.30303" width="75.7575758" height="75.7575758"></rect>
            <rect id="Rectangle-path" fill="#000000" x="1439.39394" y="530.30303" width="75.7575758" height="75.7575758"></rect>
            <rect id="Rectangle-path" fill="#000000" x="1666.66667" y="530.30303" width="75.7575758" height="75.7575758"></rect>
            <rect id="Rectangle-path" fill="#000000" x="1818.18182" y="530.30303" width="75.7575758" height="75.7575758"></rect>
            <rect id="Rectangle-path" fill="#000000" x="1893.93939" y="530.30303" width="75.7575758" height="75.7575758"></rect>
            <rect id="Rectangle-path" fill="#000000" x="1969.69697" y="530.30303" width="75.7575758" height="75.7575758"></rect>
            <rect id="Rectangle-path" fill="#000000" x="2121.21212" y="530.30303" width="75.7575758" height="75.7575758"></rect>
            <rect id="Rectangle-path" fill="#000000" x="303.030303" y="606.060606" width="75.7575758" height="75.7575758"></rect>
            <rect id="Rectangle-path" fill="#000000" x="454.545455" y="606.060606" width="75.7575758" height="75.7575758"></rect>
            <rect id="Rectangle-path" fill="#000000" x="530.30303" y="606.060606" width="75.7575758" height="75.7575758"></rect>
            <rect id="Rectangle-path" fill="#000000" x="606.060606" y="606.060606" width="75.7575758" height="75.7575758"></rect>
            <rect id="Rectangle-path" fill="#000000" x="757.575758" y="606.060606" width="75.7575758" height="75.7575758"></rect>
            <rect id="Rectangle-path" fill="#000000" x="1060.60606" y="606.060606" width="75.7575758" height="75.7575758"></rect>
            <rect id="Rectangle-path" fill="#000000" x="1212.12121" y="606.060606" width="75.7575758" height="75.7575758"></rect>
            <rect id="Rectangle-path" fill="#000000" x="1363.63636" y="606.060606" width="75.7575758" height="75.7575758"></rect>
            <rect id="Rectangle-path" fill="#000000" x="1515.15152" y="606.060606" width="75.7575758" height="75.7575758"></rect>
            <rect id="Rectangle-path" fill="#000000" x="1666.66667" y="606.060606" width="75.7575758" height="75.7575758"></rect>
            <rect id="Rectangle-path" fill="#000000" x="1818.18182" y="606.060606" width="75.7575758" height="75.7575758"></rect>
            <rect id="Rectangle-path" fill="#000000" x="1893.93939" y="606.060606" width="75.7575758" height="75.7575758"></rect>
            <rect id="Rectangle-path" fill="#000000" x="1969.69697" y="606.060606" width="75.7575758" height="75.7575758"></rect>
            <rect id="Rectangle-path" fill="#000000" x="2121.21212" y="606.060606" width="75.7575758" height="75.7575758"></rect>
            <rect id="Rectangle-path" fill="#000000" x="303.030303" y="681.818182" width="75.7575758" height="75.7575758"></rect>
            <rect id="Rectangle-path" fill="#000000" x="757.575758" y="681.818182" width="75.7575758" height="75.7575758"></rect>
            <rect id="Rectangle-path" fill="#000000" x="909.090909" y="681.818182" width="75.7575758" height="75.7575758"></rect>
            <rect id="Rectangle-path" fill="#000000" x="1060.60606" y="681.818182" width="75.7575758" height="75.7575758"></rect>
            <rect id="Rectangle-path" fill="#000000" x="1287.87879" y="681.818182" width="75.7575758" height="75.7575758"></rect>
            <rect id="Rectangle-path" fill="#000000" x="1439.39394" y="681.818182" width="75.7575758" height="75.7575758"></rect>
            <rect id="Rectangle-path" fill="#000000" x="1515.15152" y="681.818182" width="75.7575758" height="75.7575758"></rect>
            <rect id="Rectangle-path" fill="#000000" x="1666.66667" y="681.818182" width="75.7575758" height="75.7575758"></rect>
            <rect id="Rectangle-path" fill="#000000" x="2121.21212" y="681.818182" width="75.7575758" height="75.7575758"></rect>
            <rect id="Rectangle-path" fill="#000000" x="303.030303" y="757.575758" width="75.7575758" height="75.7575758"></rect>
            <rect id="Rectangle-path" fill="#000000" x="378.787879" y="757.575758" width="75.7575758" height="75.7575758"></rect>
            <rect id="Rectangle-path" fill="#000000" x="454.545455" y="757.575758" width="75.7575758" height="75.7575758"></rect>
            <rect id="Rectangle-path" fill="#000000" x="530.30303" y="757.575758" width="75.7575758" height="75.7575758"></rect>
            <rect id="Rectangle-path" fill="#000000" x="606.060606" y="757.575758" width="75.7575758" height="75.7575758"></rect>
            <rect id="Rectangle-path" fill="#000000" x="681.818182" y="757.575758" width="75.7575758" height="75.7575758"></rect>
            <rect id="Rectangle-path" fill="#000000" x="757.575758" y="757.575758" width="75.7575758" height="75.7575758"></rect>
            <rect id="Rectangle-path" fill="#000000" x="909.090909" y="757.575758" width="75.7575758" height="75.7575758"></rect>
            <rect id="Rectangle-path" fill="#000000" x="1060.60606" y="757.575758" width="75.7575758" height="75.7575758"></rect>
            <rect id="Rectangle-path" fill="#000000" x="1212.12121" y="757.575758" width="75.7575758" height="75.7575758"></rect>
            <rect id="Rectangle-path" fill="#000000" x="1363.63636" y="757.575758" width="75.7575758" height="75.7575758"></rect>
            <rect id="Rectangle-path" fill="#000000" x="1515.15152" y="757.575758" width="75.7575758" height="75.7575758"></rect>
            <rect id="Rectangle-path" fill="#000000" x="1666.66667" y="757.575758" width="75.7575758" height="75.7575758"></rect>
            <rect id="Rectangle-path" fill="#000000" x="1742.42424" y="757.575758" width="75.7575758" height="75.7575758"></rect>
            <rect id="Rectangle-path" fill="#000000" x="1818.18182" y="757.575758" width="75.7575758" height="75.7575758"></rect>
            <rect id="Rectangle-path" fill="#000000" x="1893.93939" y="757.575758" width="75.7575758" height="75.7575758"></rect>
            <rect id="Rectangle-path" fill="#000000" x="1969.69697" y="757.575758" width="75.7575758" height="75.7575758"></rect>
            <rect id="Rectangle-path" fill="#000000" x="2045.45455" y="757.575758" width="75.7575758" height="75.7575758"></rect>
            <rect id="Rectangle-path" fill="#000000" x="2121.21212" y="757.575758" width="75.7575758" height="75.7575758"></rect>
            <rect id="Rectangle-path" fill="#000000" x="1212.12121" y="833.333333" width="75.7575758" height="75.7575758"></rect>
            <rect id="Rectangle-path" fill="#000000" x="1515.15152" y="833.333333" width="75.7575758" height="75.7575758"></rect>
            <rect id="Rectangle-path" fill="#000000" x="303.030303" y="909.090909" width="75.7575758" height="75.7575758"></rect>
            <rect id="Rectangle-path" fill="#000000" x="378.787879" y="909.090909" width="75.7575758" height="75.7575758"></rect>
            <rect id="Rectangle-path" fill="#000000" x="454.545455" y="909.090909" width="75.7575758" height="75.7575758"></rect>
            <rect id="Rectangle-path" fill="#000000" x="530.30303" y="909.090909" width="75.7575758" height="75.7575758"></rect>
            <rect id="Rectangle-path" fill="#000000" x="606.060606" y="909.090909" width="75.7575758" height="75.7575758"></rect>
            <rect id="Rectangle-path" fill="#000000" x="757.575758" y="909.090909" width="75.7575758" height="75.7575758"></rect>
            <rect id="Rectangle-path" fill="#000000" x="833.333333" y="909.090909" width="75.7575758" height="75.7575758"></rect>
            <rect id="Rectangle-path" fill="#000000" x="909.090909" y="909.090909" width="75.7575758" height="75.7575758"></rect>
            <rect id="Rectangle-path" fill="#000000" x="984.848485" y="909.090909" width="75.7575758" height="75.7575758"></rect>
            <rect id="Rectangle-path" fill="#000000" x="1060.60606" y="909.090909" width="75.7575758" height="75.7575758"></rect>
            <rect id="Rectangle-path" fill="#000000" x="1212.12121" y="909.090909" width="75.7575758" height="75.7575758"></rect>
            <rect id="Rectangle-path" fill="#000000" x="1363.63636" y="909.090909" width="75.7575758" height="75.7575758"></rect>
            <rect id="Rectangle-path" fill="#000000" x="1590.90909" y="909.090909" width="75.7575758" height="75.7575758"></rect>
            <rect id="Rectangle-path" fill="#000000" x="1742.42424" y="909.090909" width="75.7575758" height="75.7575758"></rect>
            <rect id="Rectangle-path" fill="#000000" x="1893.93939" y="909.090909" width="75.7575758" height="75.7575758"></rect>
            <rect id="Rectangle-path" fill="#000000" x="2045.45455" y="909.090909" width="75.7575758" height="75.7575758"></rect>
            <rect id="Rectangle-path" fill="#000000" x="378.787879" y="984.848485" width="75.7575758" height="75.7575758"></rect>
            <rect id="Rectangle-path" fill="#000000" x="909.090909" y="984.848485" width="75.7575758" height="75.7575758"></rect>
            <rect id="Rectangle-path" fill="#000000" x="984.848485" y="984.848485" width="75.7575758" height="75.7575758"></rect>
            <rect id="Rectangle-path" fill="#000000" x="1363.63636" y="984.848485" width="75.7575758" height="75.7575758"></rect>
            <rect id="Rectangle-path" fill="#000000" x="1742.42424" y="984.848485" width="75.7575758" height="75.7575758"></rect>
            <rect id="Rectangle-path" fill="#000000" x="2045.45455" y="984.848485" width="75.7575758" height="75.7575758"></rect>
            <rect id="Rectangle-path" fill="#000000" x="378.787879" y="1060.60606" width="75.7575758" height="75.7575758"></rect>
            <rect id="Rectangle-path" fill="#000000" x="454.545455" y="1060.60606" width="75.7575758" height="75.7575758"></rect>
            <rect id="Rectangle-path" fill="#000000" x="606.060606" y="1060.60606" width="75.7575758" height="75.7575758"></rect>
            <rect id="Rectangle-path" fill="#000000" x="757.575758" y="1060.60606" width="75.7575758" height="75.7575758"></rect>
            <rect id="Rectangle-path" fill="#000000" x="909.090909" y="1060.60606" width="75.7575758" height="75.7575758"></rect>
            <rect id="Rectangle-path" fill="#000000" x="984.848485" y="1060.60606" width="75.7575758" height="75.7575758"></rect>
            <rect id="Rectangle-path" fill="#000000" x="1136.36364" y="1060.60606" width="75.7575758" height="75.7575758"></rect>
            <rect id="Rectangle-path" fill="#000000" x="1212.12121" y="1060.60606" width="75.7575758" height="75.7575758"></rect>
            <rect id="Rectangle-path" fill="#000000" x="1439.39394" y="1060.60606" width="75.7575758" height="75.7575758"></rect>
            <rect id="Rectangle-path" fill="#000000" x="1515.15152" y="1060.60606" width="75.7575758" height="75.7575758"></rect>
            <rect id="Rectangle-path" fill="#000000" x="1590.90909" y="1060.60606" width="75.7575758" height="75.7575758"></rect>
            <rect id="Rectangle-path" fill="#000000" x="1666.66667" y="1060.60606" width="75.7575758" height="75.7575758"></rect>
            <rect id="Rectangle-path" fill="#000000" x="1818.18182" y="1060.60606" width="75.7575758" height="75.7575758"></rect>
            <rect id="Rectangle-path" fill="#000000" x="1893.93939" y="1060.60606" width="75.7575758" height="75.7575758"></rect>
            <rect id="Rectangle-path" fill="#000000" x="2045.45455" y="1060.60606" width="75.7575758" height="75.7575758"></rect>
            <rect id="Rectangle-path" fill="#000000" x="2121.21212" y="1060.60606" width="75.7575758" height="75.7575758"></rect>
            <rect id="Rectangle-path" fill="#000000" x="454.545455" y="1136.36364" width="75.7575758" height="75.7575758"></rect>
            <rect id="Rectangle-path" fill="#000000" x="681.818182" y="1136.36364" width="75.7575758" height="75.7575758"></rect>
            <rect id="Rectangle-path" fill="#000000" x="833.333333" y="1136.36364" width="75.7575758" height="75.7575758"></rect>
            <rect id="Rectangle-path" fill="#000000" x="984.848485" y="1136.36364" width="75.7575758" height="75.7575758"></rect>
            <rect id="Rectangle-path" fill="#000000" x="1060.60606" y="1136.36364" width="75.7575758" height="75.7575758"></rect>
            <rect id="Rectangle-path" fill="#000000" x="1136.36364" y="1136.36364" width="75.7575758" height="75.7575758"></rect>
            <rect id="Rectangle-path" fill="#000000" x="1363.63636" y="1136.36364" width="75.7575758" height="75.7575758"></rect>
            <rect id="Rectangle-path" fill="#000000" x="1439.39394" y="1136.36364" width="75.7575758" height="75.7575758"></rect>
            <rect id="Rectangle-path" fill="#000000" x="1515.15152" y="1136.36364" width="75.7575758" height="75.7575758"></rect>
            <rect id="Rectangle-path" fill="#000000" x="1590.90909" y="1136.36364" width="75.7575758" height="75.7575758"></rect>
            <rect id="Rectangle-path" fill="#000000" x="1666.66667" y="1136.36364" width="75.7575758" height="75.7575758"></rect>
            <rect id="Rectangle-path" fill="#000000" x="1742.42424" y="1136.36364" width="75.7575758" height="75.7575758"></rect>
            <rect id="Rectangle-path" fill="#000000" x="1818.18182" y="1136.36364" width="75.7575758" height="75.7575758"></rect>
            <rect id="Rectangle-path" fill="#000000" x="2121.21212" y="1136.36364" width="75.7575758" height="75.7575758"></rect>
            <rect id="Rectangle-path" fill="#000000" x="378.787879" y="1212.12121" width="75.7575758" height="75.7575758"></rect>
            <rect id="Rectangle-path" fill="#000000" x="681.818182" y="1212.12121" width="75.7575758" height="75.7575758"></rect>
            <rect id="Rectangle-path" fill="#000000" x="757.575758" y="1212.12121" width="75.7575758" height="75.7575758"></rect>
            <rect id="Rectangle-path" fill="#000000" x="833.333333" y="1212.12121" width="75.7575758" height="75.7575758"></rect>
            <rect id="Rectangle-path" fill="#000000" x="909.090909" y="1212.12121" width="75.7575758" height="75.7575758"></rect>
            <rect id="Rectangle-path" fill="#000000" x="984.848485" y="1212.12121" width="75.7575758" height="75.7575758"></rect>
            <rect id="Rectangle-path" fill="#000000" x="1136.36364" y="1212.12121" width="75.7575758" height="75.7575758"></rect>
            <rect id="Rectangle-path" fill="#000000" x="1363.63636" y="1212.12121" width="75.7575758" height="75.7575758"></rect>
            <rect id="Rectangle-path" fill="#000000" x="1439.39394" y="1212.12121" width="75.7575758" height="75.7575758"></rect>
            <rect id="Rectangle-path" fill="#000000" x="1590.90909" y="1212.12121" width="75.7575758" height="75.7575758"></rect>
            <rect id="Rectangle-path" fill="#000000" x="1666.66667" y="1212.12121" width="75.7575758" height="75.7575758"></rect>
            <rect id="Rectangle-path" fill="#000000" x="1818.18182" y="1212.12121" width="75.7575758" height="75.7575758"></rect>
            <rect id="Rectangle-path" fill="#000000" x="1969.69697" y="1212.12121" width="75.7575758" height="75.7575758"></rect>
            <rect id="Rectangle-path" fill="#000000" x="2045.45455" y="1212.12121" width="75.7575758" height="75.7575758"></rect>
            <rect id="Rectangle-path" fill="#000000" x="2121.21212" y="1212.12121" width="75.7575758" height="75.7575758"></rect>
            <rect id="Rectangle-path" fill="#000000" x="303.030303" y="1287.87879" width="75.7575758" height="75.7575758"></rect>
            <rect id="Rectangle-path" fill="#000000" x="454.545455" y="1287.87879" width="75.7575758" height="75.7575758"></rect>
            <rect id="Rectangle-path" fill="#000000" x="606.060606" y="1287.87879" width="75.7575758" height="75.7575758"></rect>
            <rect id="Rectangle-path" fill="#000000" x="833.333333" y="1287.87879" width="75.7575758" height="75.7575758"></rect>
            <rect id="Rectangle-path" fill="#000000" x="909.090909" y="1287.87879" width="75.7575758" height="75.7575758"></rect>
            <rect id="Rectangle-path" fill="#000000" x="984.848485" y="1287.87879" width="75.7575758" height="75.7575758"></rect>
            <rect id="Rectangle-path" fill="#000000" x="1060.60606" y="1287.87879" width="75.7575758" height="75.7575758"></rect>
            <rect id="Rectangle-path" fill="#000000" x="1212.12121" y="1287.87879" width="75.7575758" height="75.7575758"></rect>
            <rect id="Rectangle-path" fill="#000000" x="1287.87879" y="1287.87879" width="75.7575758" height="75.7575758"></rect>
            <rect id="Rectangle-path" fill="#000000" x="1515.15152" y="1287.87879" width="75.7575758" height="75.7575758"></rect>
            <rect id="Rectangle-path" fill="#000000" x="1893.93939" y="1287.87879" width="75.7575758" height="75.7575758"></rect>
            <rect id="Rectangle-path" fill="#000000" x="2045.45455" y="1287.87879" width="75.7575758" height="75.7575758"></rect>
            <rect id="Rectangle-path" fill="#000000" x="303.030303" y="1363.63636" width="75.7575758" height="75.7575758"></rect>
            <rect id="Rectangle-path" fill="#000000" x="454.545455" y="1363.63636" width="75.7575758" height="75.7575758"></rect>
            <rect id="Rectangle-path" fill="#000000" x="606.060606" y="1363.63636" width="75.7575758" height="75.7575758"></rect>
            <rect id="Rectangle-path" fill="#000000" x="681.818182" y="1363.63636" width="75.7575758" height="75.7575758"></rect>
            <rect id="Rectangle-path" fill="#000000" x="757.575758" y="1363.63636" width="75.7575758" height="75.7575758"></rect>
            <rect id="Rectangle-path" fill="#000000" x="909.090909" y="1363.63636" width="75.7575758" height="75.7575758"></rect>
            <rect id="Rectangle-path" fill="#000000" x="984.848485" y="1363.63636" width="75.7575758" height="75.7575758"></rect>
            <rect id="Rectangle-path" fill="#000000" x="1060.60606" y="1363.63636" width="75.7575758" height="75.7575758"></rect>
            <rect id="Rectangle-path" fill="#000000" x="1439.39394" y="1363.63636" width="75.7575758" height="75.7575758"></rect>
            <rect id="Rectangle-path" fill="#000000" x="1515.15152" y="1363.63636" width="75.7575758" height="75.7575758"></rect>
            <rect id="Rectangle-path" fill="#000000" x="1666.66667" y="1363.63636" width="75.7575758" height="75.7575758"></rect>
            <rect id="Rectangle-path" fill="#000000" x="1893.93939" y="1363.63636" width="75.7575758" height="75.7575758"></rect>
            <rect id="Rectangle-path" fill="#000000" x="2045.45455" y="1363.63636" width="75.7575758" height="75.7575758"></rect>
            <rect id="Rectangle-path" fill="#000000" x="2121.21212" y="1363.63636" width="75.7575758" height="75.7575758"></rect>
            <rect id="Rectangle-path" fill="#000000" x="303.030303" y="1439.39394" width="75.7575758" height="75.7575758"></rect>
            <rect id="Rectangle-path" fill="#000000" x="454.545455" y="1439.39394" width="75.7575758" height="75.7575758"></rect>
            <rect id="Rectangle-path" fill="#000000" x="530.30303" y="1439.39394" width="75.7575758" height="75.7575758"></rect>
            <rect id="Rectangle-path" fill="#000000" x="1060.60606" y="1439.39394" width="75.7575758" height="75.7575758"></rect>
            <rect id="Rectangle-path" fill="#000000" x="1212.12121" y="1439.39394" width="75.7575758" height="75.7575758"></rect>
            <rect id="Rectangle-path" fill="#000000" x="1363.63636" y="1439.39394" width="75.7575758" height="75.7575758"></rect>
            <rect id="Rectangle-path" fill="#000000" x="1439.39394" y="1439.39394" width="75.7575758" height="75.7575758"></rect>
            <rect id="Rectangle-path" fill="#000000" x="1515.15152" y="1439.39394" width="75.7575758" height="75.7575758"></rect>
            <rect id="Rectangle-path" fill="#000000" x="1590.90909" y="1439.39394" width="75.7575758" height="75.7575758"></rect>
            <rect id="Rectangle-path" fill="#000000" x="1666.66667" y="1439.39394" width="75.7575758" height="75.7575758"></rect>
            <rect id="Rectangle-path" fill="#000000" x="1742.42424" y="1439.39394" width="75.7575758" height="75.7575758"></rect>
            <rect id="Rectangle-path" fill="#000000" x="1818.18182" y="1439.39394" width="75.7575758" height="75.7575758"></rect>
            <rect id="Rectangle-path" fill="#000000" x="1893.93939" y="1439.39394" width="75.7575758" height="75.7575758"></rect>
            <rect id="Rectangle-path" fill="#000000" x="2121.21212" y="1439.39394" width="75.7575758" height="75.7575758"></rect>
            <rect id="Rectangle-path" fill="#000000" x="303.030303" y="1515.15152" width="75.7575758" height="75.7575758"></rect>
            <rect id="Rectangle-path" fill="#000000" x="757.575758" y="1515.15152" width="75.7575758" height="75.7575758"></rect>
            <rect id="Rectangle-path" fill="#000000" x="833.333333" y="1515.15152" width="75.7575758" height="75.7575758"></rect>
            <rect id="Rectangle-path" fill="#000000" x="909.090909" y="1515.15152" width="75.7575758" height="75.7575758"></rect>
            <rect id="Rectangle-path" fill="#000000" x="1212.12121" y="1515.15152" width="75.7575758" height="75.7575758"></rect>
            <rect id="Rectangle-path" fill="#000000" x="1287.87879" y="1515.15152" width="75.7575758" height="75.7575758"></rect>
            <rect id="Rectangle-path" fill="#000000" x="1363.63636" y="1515.15152" width="75.7575758" height="75.7575758"></rect>
            <rect id="Rectangle-path" fill="#000000" x="1515.15152" y="1515.15152" width="75.7575758" height="75.7575758"></rect>
            <rect id="Rectangle-path" fill="#000000" x="1590.90909" y="1515.15152" width="75.7575758" height="75.7575758"></rect>
            <rect id="Rectangle-path" fill="#000000" x="1666.66667" y="1515.15152" width="75.7575758" height="75.7575758"></rect>
            <rect id="Rectangle-path" fill="#000000" x="1742.42424" y="1515.15152" width="75.7575758" height="75.7575758"></rect>
            <rect id="Rectangle-path" fill="#000000" x="1818.18182" y="1515.15152" width="75.7575758" height="75.7575758"></rect>
            <rect id="Rectangle-path" fill="#000000" x="1969.69697" y="1515.15152" width="75.7575758" height="75.7575758"></rect>
            <rect id="Rectangle-path" fill="#000000" x="909.090909" y="1590.90909" width="75.7575758" height="75.7575758"></rect>
            <rect id="Rectangle-path" fill="#000000" x="1060.60606" y="1590.90909" width="75.7575758" height="75.7575758"></rect>
            <rect id="Rectangle-path" fill="#000000" x="1439.39394" y="1590.90909" width="75.7575758" height="75.7575758"></rect>
            <rect id="Rectangle-path" fill="#000000" x="1515.15152" y="1590.90909" width="75.7575758" height="75.7575758"></rect>
            <rect id="Rectangle-path" fill="#000000" x="1818.18182" y="1590.90909" width="75.7575758" height="75.7575758"></rect>
            <rect id="Rectangle-path" fill="#000000" x="1893.93939" y="1590.90909" width="75.7575758" height="75.7575758"></rect>
            <rect id="Rectangle-path" fill="#000000" x="1969.69697" y="1590.90909" width="75.7575758" height="75.7575758"></rect>
            <rect id="Rectangle-path" fill="#000000" x="303.030303" y="1666.66667" width="75.7575758" height="75.7575758"></rect>
            <rect id="Rectangle-path" fill="#000000" x="378.787879" y="1666.66667" width="75.7575758" height="75.7575758"></rect>
            <rect id="Rectangle-path" fill="#000000" x="454.545455" y="1666.66667" width="75.7575758" height="75.7575758"></rect>
            <rect id="Rectangle-path" fill="#000000" x="530.30303" y="1666.66667" width="75.7575758" height="75.7575758"></rect>
            <rect id="Rectangle-path" fill="#000000" x="606.060606" y="1666.66667" width="75.7575758" height="75.7575758"></rect>
            <rect id="Rectangle-path" fill="#000000" x="681.818182" y="1666.66667" width="75.7575758" height="75.7575758"></rect>
            <rect id="Rectangle-path" fill="#000000" x="757.575758" y="1666.66667" width="75.7575758" height="75.7575758"></rect>
            <rect id="Rectangle-path" fill="#000000" x="909.090909" y="1666.66667" width="75.7575758" height="75.7575758"></rect>
            <rect id="Rectangle-path" fill="#000000" x="984.848485" y="1666.66667" width="75.7575758" height="75.7575758"></rect>
            <rect id="Rectangle-path" fill="#000000" x="1136.36364" y="1666.66667" width="75.7575758" height="75.7575758"></rect>
            <rect id="Rectangle-path" fill="#000000" x="1212.12121" y="1666.66667" width="75.7575758" height="75.7575758"></rect>
            <rect id="Rectangle-path" fill="#000000" x="1363.63636" y="1666.66667" width="75.7575758" height="75.7575758"></rect>
            <rect id="Rectangle-path" fill="#000000" x="1515.15152" y="1666.66667" width="75.7575758" height="75.7575758"></rect>
            <rect id="Rectangle-path" fill="#000000" x="1666.66667" y="1666.66667" width="75.7575758" height="75.7575758"></rect>
            <rect id="Rectangle-path" fill="#000000" x="1818.18182" y="1666.66667" width="75.7575758" height="75.7575758"></rect>
            <rect id="Rectangle-path" fill="#000000" x="1893.93939" y="1666.66667" width="75.7575758" height="75.7575758"></rect>
            <rect id="Rectangle-path" fill="#000000" x="1969.69697" y="1666.66667" width="75.7575758" height="75.7575758"></rect>
            <rect id="Rectangle-path" fill="#000000" x="2045.45455" y="1666.66667" width="75.7575758" height="75.7575758"></rect>
            <rect id="Rectangle-path" fill="#000000" x="2121.21212" y="1666.66667" width="75.7575758" height="75.7575758"></rect>
            <rect id="Rectangle-path" fill="#000000" x="303.030303" y="1742.42424" width="75.7575758" height="75.7575758"></rect>
            <rect id="Rectangle-path" fill="#000000" x="757.575758" y="1742.42424" width="75.7575758" height="75.7575758"></rect>
            <rect id="Rectangle-path" fill="#000000" x="1136.36364" y="1742.42424" width="75.7575758" height="75.7575758"></rect>
            <rect id="Rectangle-path" fill="#000000" x="1363.63636" y="1742.42424" width="75.7575758" height="75.7575758"></rect>
            <rect id="Rectangle-path" fill="#000000" x="1515.15152" y="1742.42424" width="75.7575758" height="75.7575758"></rect>
            <rect id="Rectangle-path" fill="#000000" x="1818.18182" y="1742.42424" width="75.7575758" height="75.7575758"></rect>
            <rect id="Rectangle-path" fill="#000000" x="1893.93939" y="1742.42424" width="75.7575758" height="75.7575758"></rect>
            <rect id="Rectangle-path" fill="#000000" x="303.030303" y="1818.18182" width="75.7575758" height="75.7575758"></rect>
            <rect id="Rectangle-path" fill="#000000" x="454.545455" y="1818.18182" width="75.7575758" height="75.7575758"></rect>
            <rect id="Rectangle-path" fill="#000000" x="530.30303" y="1818.18182" width="75.7575758" height="75.7575758"></rect>
            <rect id="Rectangle-path" fill="#000000" x="606.060606" y="1818.18182" width="75.7575758" height="75.7575758"></rect>
            <rect id="Rectangle-path" fill="#000000" x="757.575758" y="1818.18182" width="75.7575758" height="75.7575758"></rect>
            <rect id="Rectangle-path" fill="#000000" x="909.090909" y="1818.18182" width="75.7575758" height="75.7575758"></rect>
            <rect id="Rectangle-path" fill="#000000" x="984.848485" y="1818.18182" width="75.7575758" height="75.7575758"></rect>
            <rect id="Rectangle-path" fill="#000000" x="1060.60606" y="1818.18182" width="75.7575758" height="75.7575758"></rect>
            <rect id="Rectangle-path" fill="#000000" x="1136.36364" y="1818.18182" width="75.7575758" height="75.7575758"></rect>
            <rect id="Rectangle-path" fill="#000000" x="1439.39394" y="1818.18182" width="75.7575758" height="75.7575758"></rect>
            <rect id="Rectangle-path" fill="#000000" x="1515.15152" y="1818.18182" width="75.7575758" height="75.7575758"></rect>
            <rect id="Rectangle-path" fill="#000000" x="1590.90909" y="1818.18182" width="75.7575758" height="75.7575758"></rect>
            <rect id="Rectangle-path" fill="#000000" x="1666.66667" y="1818.18182" width="75.7575758" height="75.7575758"></rect>
            <rect id="Rectangle-path" fill="#000000" x="1742.42424" y="1818.18182" width="75.7575758" height="75.7575758"></rect>
            <rect id="Rectangle-path" fill="#000000" x="1818.18182" y="1818.18182" width="75.7575758" height="75.7575758"></rect>
            <rect id="Rectangle-path" fill="#000000" x="1893.93939" y="1818.18182" width="75.7575758" height="75.7575758"></rect>
            <rect id="Rectangle-path" fill="#000000" x="1969.69697" y="1818.18182" width="75.7575758" height="75.7575758"></rect>
            <rect id="Rectangle-path" fill="#000000" x="2045.45455" y="1818.18182" width="75.7575758" height="75.7575758"></rect>
            <rect id="Rectangle-path" fill="#000000" x="2121.21212" y="1818.18182" width="75.7575758" height="75.7575758"></rect>
            <rect id="Rectangle-path" fill="#000000" x="303.030303" y="1893.93939" width="75.7575758" height="75.7575758"></rect>
            <rect id="Rectangle-path" fill="#000000" x="454.545455" y="1893.93939" width="75.7575758" height="75.7575758"></rect>
            <rect id="Rectangle-path" fill="#000000" x="530.30303" y="1893.93939" width="75.7575758" height="75.7575758"></rect>
            <rect id="Rectangle-path" fill="#000000" x="606.060606" y="1893.93939" width="75.7575758" height="75.7575758"></rect>
            <rect id="Rectangle-path" fill="#000000" x="757.575758" y="1893.93939" width="75.7575758" height="75.7575758"></rect>
            <rect id="Rectangle-path" fill="#000000" x="909.090909" y="1893.93939" width="75.7575758" height="75.7575758"></rect>
            <rect id="Rectangle-path" fill="#000000" x="984.848485" y="1893.93939" width="75.7575758" height="75.7575758"></rect>
            <rect id="Rectangle-path" fill="#000000" x="1212.12121" y="1893.93939" width="75.7575758" height="75.7575758"></rect>
            <rect id="Rectangle-path" fill="#000000" x="1287.87879" y="1893.93939" width="75.7575758" height="75.7575758"></rect>
            <rect id="Rectangle-path" fill="#000000" x="1439.39394" y="1893.93939" width="75.7575758" height="75.7575758"></rect>
            <rect id="Rectangle-path" fill="#000000" x="1515.15152" y="1893.93939" width="75.7575758" height="75.7575758"></rect>
            <rect id="Rectangle-path" fill="#000000" x="1590.90909" y="1893.93939" width="75.7575758" height="75.7575758"></rect>
            <rect id="Rectangle-path" fill="#000000" x="1666.66667" y="1893.93939" width="75.7575758" height="75.7575758"></rect>
            <rect id="Rectangle-path" fill="#000000" x="1818.18182" y="1893.93939" width="75.7575758" height="75.7575758"></rect>
            <rect id="Rectangle-path" fill="#000000" x="1969.69697" y="1893.93939" width="75.7575758" height="75.7575758"></rect>
            <rect id="Rectangle-path" fill="#000000" x="2045.45455" y="1893.93939" width="75.7575758" height="75.7575758"></rect>
            <rect id="Rectangle-path" fill="#000000" x="2121.21212" y="1893.93939" width="75.7575758" height="75.7575758"></rect>
            <rect id="Rectangle-path" fill="#000000" x="303.030303" y="1969.69697" width="75.7575758" height="75.7575758"></rect>
            <rect id="Rectangle-path" fill="#000000" x="454.545455" y="1969.69697" width="75.7575758" height="75.7575758"></rect>
            <rect id="Rectangle-path" fill="#000000" x="530.30303" y="1969.69697" width="75.7575758" height="75.7575758"></rect>
            <rect id="Rectangle-path" fill="#000000" x="606.060606" y="1969.69697" width="75.7575758" height="75.7575758"></rect>
            <rect id="Rectangle-path" fill="#000000" x="757.575758" y="1969.69697" width="75.7575758" height="75.7575758"></rect>
            <rect id="Rectangle-path" fill="#000000" x="909.090909" y="1969.69697" width="75.7575758" height="75.7575758"></rect>
            <rect id="Rectangle-path" fill="#000000" x="984.848485" y="1969.69697" width="75.7575758" height="75.7575758"></rect>
            <rect id="Rectangle-path" fill="#000000" x="1287.87879" y="1969.69697" width="75.7575758" height="75.7575758"></rect>
            <rect id="Rectangle-path" fill="#000000" x="1363.63636" y="1969.69697" width="75.7575758" height="75.7575758"></rect>
            <rect id="Rectangle-path" fill="#000000" x="1515.15152" y="1969.69697" width="75.7575758" height="75.7575758"></rect>
            <rect id="Rectangle-path" fill="#000000" x="1742.42424" y="1969.69697" width="75.7575758" height="75.7575758"></rect>
            <rect id="Rectangle-path" fill="#000000" x="1969.69697" y="1969.69697" width="75.7575758" height="75.7575758"></rect>
            <rect id="Rectangle-path" fill="#000000" x="2121.21212" y="1969.69697" width="75.7575758" height="75.7575758"></rect>
            <rect id="Rectangle-path" fill="#000000" x="303.030303" y="2045.45455" width="75.7575758" height="75.7575758"></rect>
            <rect id="Rectangle-path" fill="#000000" x="757.575758" y="2045.45455" width="75.7575758" height="75.7575758"></rect>
            <rect id="Rectangle-path" fill="#000000" x="909.090909" y="2045.45455" width="75.7575758" height="75.7575758"></rect>
            <rect id="Rectangle-path" fill="#000000" x="984.848485" y="2045.45455" width="75.7575758" height="75.7575758"></rect>
            <rect id="Rectangle-path" fill="#000000" x="1212.12121" y="2045.45455" width="75.7575758" height="75.7575758"></rect>
            <rect id="Rectangle-path" fill="#000000" x="1287.87879" y="2045.45455" width="75.7575758" height="75.7575758"></rect>
            <rect id="Rectangle-path" fill="#000000" x="1439.39394" y="2045.45455" width="75.7575758" height="75.7575758"></rect>
            <rect id="Rectangle-path" fill="#000000" x="1515.15152" y="2045.45455" width="75.7575758" height="75.7575758"></rect>
            <rect id="Rectangle-path" fill="#000000" x="1590.90909" y="2045.45455" width="75.7575758" height="75.7575758"></rect>
            <rect id="Rectangle-path" fill="#000000" x="1666.66667" y="2045.45455" width="75.7575758" height="75.7575758"></rect>
            <rect id="Rectangle-path" fill="#000000" x="1742.42424" y="2045.45455" width="75.7575758" height="75.7575758"></rect>
            <rect id="Rectangle-path" fill="#000000" x="1818.18182" y="2045.45455" width="75.7575758" height="75.7575758"></rect>
            <rect id="Rectangle-path" fill="#000000" x="1893.93939" y="2045.45455" width="75.7575758" height="75.7575758"></rect>
            <rect id="Rectangle-path" fill="#000000" x="2121.21212" y="2045.45455" width="75.7575758" height="75.7575758"></rect>
            <rect id="Rectangle-path" fill="#000000" x="303.030303" y="2121.21212" width="75.7575758" height="75.7575758"></rect>
            <rect id="Rectangle-path" fill="#000000" x="378.787879" y="2121.21212" width="75.7575758" height="75.7575758"></rect>
            <rect id="Rectangle-path" fill="#000000" x="454.545455" y="2121.21212" width="75.7575758" height="75.7575758"></rect>
            <rect id="Rectangle-path" fill="#000000" x="530.30303" y="2121.21212" width="75.7575758" height="75.7575758"></rect>
            <rect id="Rectangle-path" fill="#000000" x="606.060606" y="2121.21212" width="75.7575758" height="75.7575758"></rect>
            <rect id="Rectangle-path" fill="#000000" x="681.818182" y="2121.21212" width="75.7575758" height="75.7575758"></rect>
            <rect id="Rectangle-path" fill="#000000" x="757.575758" y="2121.21212" width="75.7575758" height="75.7575758"></rect>
            <rect id="Rectangle-path" fill="#000000" x="909.090909" y="2121.21212" width="75.7575758" height="75.7575758"></rect>
            <rect id="Rectangle-path" fill="#000000" x="984.848485" y="2121.21212" width="75.7575758" height="75.7575758"></rect>
            <rect id="Rectangle-path" fill="#000000" x="1212.12121" y="2121.21212" width="75.7575758" height="75.7575758"></rect>
            <rect id="Rectangle-path" fill="#000000" x="1363.63636" y="2121.21212" width="75.7575758" height="75.7575758"></rect>
            <rect id="Rectangle-path" fill="#000000" x="1439.39394" y="2121.21212" width="75.7575758" height="75.7575758"></rect>
            <rect id="Rectangle-path" fill="#000000" x="1666.66667" y="2121.21212" width="75.7575758" height="75.7575758"></rect>
            <rect id="Rectangle-path" fill="#000000" x="1742.42424" y="2121.21212" width="75.7575758" height="75.7575758"></rect>
            <rect id="Rectangle-path" fill="#000000" x="1818.18182" y="2121.21212" width="75.7575758" height="75.7575758"></rect>
            <rect id="Rectangle-path" fill="#000000" x="1893.93939" y="2121.21212" width="75.7575758" height="75.7575758"></rect>
            <rect id="Rectangle-path" fill="#000000" x="1969.69697" y="2121.21212" width="75.7575758" height="75.7575758"></rect>
            <rect id="Rectangle-path" fill="#000000" x="2045.45455" y="2121.21212" width="75.7575758" height="75.7575758"></rect>
            <rect id="Rectangle-path" fill="#000000" x="2121.21212" y="2121.21212" width="75.7575758" height="75.7575758"></rect>
        </g>
    </g>
</svg>