<?xml version="1.0" encoding="UTF-8"?>
<svg width="427px" height="427px" viewBox="0 0 427 427" version="1.1" xmlns="http://www.w3.org/2000/svg" xmlns:xlink="http://www.w3.org/1999/xlink">
    <!-- Generator: Sketch 3.8.1 (29687) - http://www.bohemiancoding.com/sketch -->
    <title>Group 4</title>
    <desc>Created with Sketch.</desc>
    <defs>
        <radialGradient cx="50%" cy="0%" fx="50%" fy="0%" r="100%" id="radialGradient-1">
            <stop stop-color="#BCE481" offset="0%"></stop>
            <stop stop-color="#87C44A" offset="100%"></stop>
        </radialGradient>
        <radialGradient cx="50%" cy="0%" fx="50%" fy="0%" r="100%" id="radialGradient-2">
            <stop stop-color="#FBFFFF" offset="0%"></stop>
            <stop stop-color="#DEE7ED" offset="100%"></stop>
        </radialGradient>
        <path d="M213.333,0 C95.518,0 0,95.514 0,213.333 C0,331.152 95.518,426.666 213.333,426.666 C331.161,426.666 426.666,331.152 426.666,213.333 C426.666,95.514 331.157,0 213.333,0 L213.333,0 L213.333,0 Z" id="path-3"></path>
        <linearGradient x1="10.9114164%" y1="21.5908%" x2="90.0227178%" y2="79.3756%" id="linearGradient-5">
            <stop stop-color="#F5DE4A" offset="0%"></stop>
            <stop stop-color="#E3CA2B" offset="100%"></stop>
        </linearGradient>
    </defs>
    <g id="Page-1" stroke="none" stroke-width="1" fill="none" fill-rule="evenodd">
        <g id="Group-4">
            <g id="Group-2">
                <g id="012-checked">
                    <g id="Page-1">
                        <g id="012-checked">
                            <mask id="mask-4" fill="white">
                                <use xlink:href="#path-3"></use>
                            </mask>
                            <use id="Shape" fill="url(#radialGradient-2)" xlink:href="#path-3"></use>
                        </g>
                    </g>
                </g>
            </g>
            <g id="Camada_x0020_1" transform="translate(86.000000, 82.000000)">
                <g id="_2402383725456">
                    <path d="M221.486744,219.978969 L192.907809,216.551879 C188.33518,215.980697 184.334129,218.836605 182.905182,223.120468 L174.045712,250.537186 C173.188344,253.678685 170.90203,255.67782 167.758347,256.534593 C164.614664,257.391365 161.470981,256.820184 159.184666,254.821048 L136.607308,236.543236 C133.177836,233.687328 128.033627,233.687328 124.604155,236.543236 L102.312586,254.821048 C99.7404821,256.820184 96.8825886,257.391365 93.7389058,256.534593 C90.595223,255.67782 88.3089082,253.393094 87.4515402,250.537186 L78.3062811,223.120468 C76.8773343,218.836605 72.5904941,216.266288 68.3036539,216.83747 L39.7247192,220.264559 C36.5810364,220.55015 33.7231429,219.407787 31.4368282,217.12306 C29.4363027,214.838334 28.5789347,211.696835 29.4363027,208.555336 L36.8668258,180.567436 C38.0099832,176.283574 36.0094577,171.714121 31.7226175,169.714985 L5.71578694,157.14899 C2.85789347,155.721036 0.857368041,153.150718 0.571578694,150.009219 C1.1285417e-13,146.86772 1.14315739,144.011812 3.42947216,141.727086 L24.5778838,122.30691 C28.007356,119.165411 28.5789347,114.310368 26.2926199,110.597687 L11.1457845,86.036877 C9.43104845,83.1809688 9.1452591,80.3250607 10.5742058,77.1835618 C12.0031526,74.3276536 14.2894674,72.3285179 17.4331502,71.7573363 L46.0120849,66.9022925 C50.5847144,66.04552 53.7283972,62.3328394 53.7283972,57.7633864 L54.2999759,28.9187142 C54.2999759,25.7772153 56.014712,22.9213072 58.5868161,21.2077623 C61.1589203,19.4942174 64.3026031,19.2086266 67.4462859,20.3509898 L94.3104845,31.4890316 C98.5973247,33.2025764 103.169954,31.7746224 105.742058,28.0619418 L122.032051,4.35790427 C123.746787,1.78758694 126.604681,0.359632876 129.748364,0.359632876 C132.892046,0.359632876 135.74994,1.78758694 137.464676,4.35790427 L153.754669,28.0619418 C156.326773,31.7746224 161.185192,33.2025764 165.186243,31.4890316 L191.764652,20.065399 C194.622545,18.9230358 197.766228,18.9230358 200.624122,20.6365806 C203.482015,22.3501255 204.910962,25.2060337 204.910962,28.3475326 L205.76833,56.906614 C205.76833,61.476067 209.197802,65.1887476 213.484642,65.7599292 L242.063577,70.614973 C245.20726,71.1861547 247.779364,73.1852904 249.208311,76.0411985 C250.637257,78.8971066 250.351468,82.0386056 248.636732,84.8945137 L233.775686,109.455324 C231.489371,113.453595 232.06095,118.308639 235.490422,121.164547 L256.924623,140.584722 C259.210938,142.869449 260.354095,145.725357 260.068306,148.866856 C259.496727,152.008355 257.781991,154.578672 254.924098,156.006626 L228.917267,168.858213 C224.916216,170.857349 222.915691,175.426802 224.058848,179.710664 L231.489371,207.412973 C232.346739,210.554472 231.77516,213.695971 229.488846,215.980697 C227.48832,218.551015 224.344637,219.693378 221.200955,219.122196 L221.486744,219.978969 Z" id="Shape" fill="url(#linearGradient-5)"></path>
                    <path d="M160.613613,187.707207 L160.613613,144.297403 C160.613613,142.583858 159.184666,141.155904 157.46993,141.155904 L105.17048,141.155904 C103.455744,141.155904 102.026797,142.583858 102.026797,144.297403 L101.741008,187.707207 C101.741008,188.563979 101.455218,189.420752 100.59785,189.991933 C100.026271,190.563115 99.1689034,190.848706 98.3115354,190.848706 C91.7383804,190.563115 85.1652254,189.991933 78.5920704,189.135161 C76.8773343,188.84957 75.734177,187.707207 75.734177,185.993662 L75.734177,74.3276536 C75.734177,72.6141087 76.8773343,71.4717455 78.5920704,71.1861547 C85.1652254,70.3293822 92.0241697,69.7582006 98.8831141,69.4726098 C99.7404821,69.4726098 100.59785,69.7582006 101.169429,70.3293822 C101.741008,70.9005639 102.026797,71.7573363 102.026797,72.6141087 L102.026797,112.882413 C102.026797,114.595958 103.455744,116.023912 105.17048,116.023912 L157.184141,116.023912 C158.898877,116.023912 160.327824,114.595958 160.327824,112.882413 L160.327824,72.6141087 C160.327824,71.7573363 160.613613,70.9005639 161.185192,70.3293822 C161.75677,69.7582006 162.614138,69.4726098 163.471506,69.4726098 C170.330451,70.0437914 177.189395,70.614973 183.76255,71.1861547 C185.477286,71.4717455 186.620444,72.6141087 186.620444,74.3276536 L186.620444,185.708071 C186.620444,187.421616 185.477286,188.563979 183.76255,188.84957 C176.903606,189.706342 170.330451,190.277524 163.471506,190.848706 C162.614138,190.848706 161.75677,190.563115 161.185192,189.991933 C160.613613,189.420752 160.042034,188.563979 160.042034,187.707207 L160.613613,187.707207 Z" id="Shape" fill="#FFFFFF"></path>
                    <path d="M134.606782,68.6158373 L134.606782,191.705478 C127.462049,191.991069 121.174683,192.27666 112.315213,191.419887 L112.601003,68.9014282 C119.745736,68.3302465 127.176259,68.0446557 134.606782,68.6158373 L134.606782,68.6158373 Z" id="Shape" fill="#FEFEFE"></path>
                </g>
                <g id="_2402383730448">
                    <path d="M221.486744,219.978969 L192.907809,216.551879 C188.33518,215.980697 184.334129,218.836605 182.905182,223.120468 L174.045712,250.537186 C173.188344,253.678685 170.90203,255.67782 167.758347,256.534593 C164.614664,257.391365 161.470981,256.820184 159.184666,254.821048 L136.607308,236.543236 C133.177836,233.687328 128.033627,233.687328 124.604155,236.543236 L102.312586,254.821048 C99.7404821,256.820184 96.8825886,257.391365 93.7389058,256.534593 C90.595223,255.67782 88.3089082,253.393094 87.4515402,250.537186 L78.3062811,223.120468 C76.8773343,218.836605 72.5904941,216.266288 68.3036539,216.83747 L39.7247192,220.264559 C36.5810364,220.55015 33.7231429,219.407787 31.4368282,217.12306 C29.4363027,214.838334 28.5789347,211.696835 29.4363027,208.555336 L36.8668258,180.567436 C38.0099832,176.283574 36.0094577,171.714121 31.7226175,169.714985 L5.71578694,157.14899 C2.85789347,155.721036 0.857368041,153.150718 0.571578694,150.009219 C1.1285417e-13,146.86772 1.14315739,144.011812 3.42947216,141.727086 L24.5778838,122.30691 C28.007356,119.165411 28.5789347,114.310368 26.2926199,110.597687 L11.1457845,86.036877 C9.43104845,83.1809688 9.1452591,80.3250607 10.5742058,77.1835618 C12.0031526,74.3276536 14.2894674,72.3285179 17.4331502,71.7573363 L46.0120849,66.9022925 C50.5847144,66.04552 53.7283972,62.3328394 53.7283972,57.7633864 L54.2999759,28.9187142 C54.2999759,25.7772153 56.014712,22.9213072 58.5868161,21.2077623 C61.1589203,19.4942174 64.3026031,19.2086266 67.4462859,20.3509898 L94.3104845,31.4890316 C98.5973247,33.2025764 103.169954,31.7746224 105.742058,28.0619418 L122.032051,4.35790427 C123.746787,1.78758694 126.604681,0.359632876 129.748364,0.359632876 C132.892046,0.359632876 135.74994,1.78758694 137.464676,4.35790427 L153.754669,28.0619418 C156.326773,31.7746224 161.185192,33.2025764 165.186243,31.4890316 L191.764652,20.065399 C194.622545,18.9230358 197.766228,18.9230358 200.624122,20.6365806 C203.482015,22.3501255 204.910962,25.2060337 204.910962,28.3475326 L205.76833,56.906614 C205.76833,61.476067 209.197802,65.1887476 213.484642,65.7599292 L242.063577,70.614973 C245.20726,71.1861547 247.779364,73.1852904 249.208311,76.0411985 C250.637257,78.8971066 250.351468,82.0386056 248.636732,84.8945137 L233.775686,109.455324 C231.489371,113.453595 232.06095,118.308639 235.490422,121.164547 L256.924623,140.584722 C259.210938,142.869449 260.354095,145.725357 260.068306,148.866856 C259.496727,152.008355 257.781991,154.578672 254.924098,156.006626 L228.917267,168.858213 C224.916216,170.857349 222.915691,175.426802 224.058848,179.710664 L231.489371,207.412973 C232.346739,210.554472 231.77516,213.695971 229.488846,215.980697 C227.48832,218.551015 224.344637,219.693378 221.200955,219.122196 L221.486744,219.978969 Z" id="Shape" fill="url(#linearGradient-5)"></path>
                    <path d="M160.613613,187.707207 L160.613613,144.297403 C160.613613,142.583858 159.184666,141.155904 157.46993,141.155904 L105.17048,141.155904 C103.455744,141.155904 102.026797,142.583858 102.026797,144.297403 L101.741008,187.707207 C101.741008,188.563979 101.455218,189.420752 100.59785,189.991933 C100.026271,190.563115 99.1689034,190.848706 98.3115354,190.848706 C91.7383804,190.563115 85.1652254,189.991933 78.5920704,189.135161 C76.8773343,188.84957 75.734177,187.707207 75.734177,185.993662 L75.734177,74.3276536 C75.734177,72.6141087 76.8773343,71.4717455 78.5920704,71.1861547 C85.1652254,70.3293822 92.0241697,69.7582006 98.8831141,69.4726098 C99.7404821,69.4726098 100.59785,69.7582006 101.169429,70.3293822 C101.741008,70.9005639 102.026797,71.7573363 102.026797,72.6141087 L102.026797,112.882413 C102.026797,114.595958 103.455744,116.023912 105.17048,116.023912 L157.184141,116.023912 C158.898877,116.023912 160.327824,114.595958 160.327824,112.882413 L160.327824,72.6141087 C160.327824,71.7573363 160.613613,70.9005639 161.185192,70.3293822 C161.75677,69.7582006 162.614138,69.4726098 163.471506,69.4726098 C170.330451,70.0437914 177.189395,70.614973 183.76255,71.1861547 C185.477286,71.4717455 186.620444,72.6141087 186.620444,74.3276536 L186.620444,185.708071 C186.620444,187.421616 185.477286,188.563979 183.76255,188.84957 C176.903606,189.706342 170.330451,190.277524 163.471506,190.848706 C162.614138,190.848706 161.75677,190.563115 161.185192,189.991933 C160.613613,189.420752 160.042034,188.563979 160.042034,187.707207 L160.613613,187.707207 Z" id="Shape" fill="#FFFFFF"></path>
                    <path d="M134.606782,68.6158373 L134.606782,191.705478 C127.462049,191.991069 121.174683,192.27666 112.315213,191.419887 L112.601003,68.9014282 C119.745736,68.3302465 127.176259,68.0446557 134.606782,68.6158373 L134.606782,68.6158373 Z" id="Shape" fill="#FEFEFE"></path>
                </g>
            </g>
        </g>
    </g>
</svg>