<?xml version="1.0" encoding="UTF-8"?>
<!DOCTYPE svg PUBLIC "-//W3C//DTD SVG 1.1//EN" "http://www.w3.org/Graphics/SVG/1.1/DTD/svg11.dtd">
<!-- Creator: CorelDRAW 2017 -->
<svg xmlns="http://www.w3.org/2000/svg" xml:space="preserve" width="0.272949in" height="0.268925in" version="1.1" style="shape-rendering:geometricPrecision; text-rendering:geometricPrecision; image-rendering:optimizeQuality; fill-rule:evenodd; clip-rule:evenodd"
viewBox="0 0 91.1 89.8"
 xmlns:xlink="http://www.w3.org/1999/xlink">
 <defs>
  <style type="text/css">
   <![CDATA[
    .fil2 {fill:#FEFEFE}
    .fil1 {fill:white;fill-rule:nonzero}
    .fil0 {fill:url(#id0)}
   ]]>
  </style>
  <linearGradient id="id0" gradientUnits="objectBoundingBox" x1="10.009%" y1="21.5908%" x2="90.9467%" y2="79.3756%">
   <stop offset="0" style="stop-opacity:1; stop-color:#F5DE4A"/>
   <stop offset="1" style="stop-opacity:1; stop-color:#E3CA2B"/>
  </linearGradient>
 </defs>
 <g id="Camada_x0020_1">
  <metadata id="CorelCorpID_0Corel-Layer"/>
  <g id="_2402383725456">
   <path class="fil0" d="M77.5 76.7l-10 -1.2c-1.6,-0.2 -3,0.8 -3.5,2.3l-3.1 9.6c-0.3,1.1 -1.1,1.8 -2.2,2.1 -1.1,0.3 -2.2,0.1 -3,-0.6l-7.9 -6.4c-1.2,-1 -3,-1 -4.2,0l-7.8 6.4c-0.9,0.7 -1.9,0.9 -3,0.6 -1.1,-0.3 -1.9,-1.1 -2.2,-2.1l-3.2 -9.6c-0.5,-1.5 -2,-2.4 -3.5,-2.2l-10 1.2c-1.1,0.1 -2.1,-0.3 -2.9,-1.1 -0.7,-0.8 -1,-1.9 -0.7,-3l2.6 -9.8c0.4,-1.5 -0.3,-3.1 -1.8,-3.8l-9.1 -4.4c-1,-0.5 -1.7,-1.4 -1.8,-2.5 -0.2,-1.1 0.2,-2.1 1,-2.9l7.4 -6.8c1.2,-1.1 1.4,-2.8 0.6,-4.1l-5.3 -8.6c-0.6,-1 -0.7,-2 -0.2,-3.1 0.5,-1 1.3,-1.7 2.4,-1.9l10 -1.7c1.6,-0.3 2.7,-1.6 2.7,-3.2l0.2 -10.1c0,-1.1 0.6,-2.1 1.5,-2.7 0.9,-0.6 2,-0.7 3.1,-0.3l9.4 3.9c1.5,0.6 3.1,0.1 4,-1.2l5.7 -8.3c0.6,-0.9 1.6,-1.4 2.7,-1.4 1.1,-0 2.1,0.5 2.7,1.4l5.7 8.3c0.9,1.3 2.6,1.8 4,1.2l9.3 -4c1,-0.4 2.1,-0.4 3.1,0.2 1,0.6 1.5,1.6 1.5,2.7l0.3 10c0,1.6 1.2,2.9 2.7,3.1l10 1.7c1.1,0.2 2,0.9 2.5,1.9 0.5,1 0.4,2.1 -0.2,3.1l-5.2 8.6c-0.8,1.4 -0.6,3.1 0.6,4.1l7.5 6.8c0.8,0.8 1.2,1.8 1.1,2.9 -0.2,1.1 -0.8,2 -1.8,2.5l-9.1 4.5c-1.4,0.7 -2.1,2.3 -1.7,3.8l2.6 9.7c0.3,1.1 0.1,2.2 -0.7,3 -0.7,0.9 -1.8,1.3 -2.9,1.1z"/>
   <path class="fil1" d="M56.2 65.4l-0 -15.2c-0,-0.6 -0.5,-1.1 -1.1,-1.1l-18.3 0c-0.6,0 -1.1,0.5 -1.1,1.1l-0.1 15.2c-0,0.3 -0.1,0.6 -0.4,0.8 -0.2,0.2 -0.5,0.3 -0.8,0.3 -2.3,-0.1 -4.6,-0.3 -6.9,-0.6 -0.6,-0.1 -1,-0.5 -1,-1.1l0 -39.1c0,-0.6 0.4,-1 1,-1.1 2.3,-0.3 4.7,-0.5 7.1,-0.6 0.3,-0 0.6,0.1 0.8,0.3 0.2,0.2 0.3,0.5 0.3,0.8l0 14.1c0,0.6 0.5,1.1 1.1,1.1l18.2 0c0.6,0 1.1,-0.5 1.1,-1.1l0 -14.1c0,-0.3 0.1,-0.6 0.3,-0.8 0.2,-0.2 0.5,-0.3 0.8,-0.3 2.4,0.2 4.8,0.4 7.1,0.6 0.6,0.1 1,0.5 1,1.1l0 39c0,0.6 -0.4,1 -1,1.1 -2.4,0.3 -4.7,0.5 -7.1,0.7 -0.3,0 -0.6,-0.1 -0.8,-0.3 -0.2,-0.2 -0.4,-0.5 -0.4,-0.8z"/>
   <path class="fil2" d="M47.1 23.7l0 43.1c-2.5,0.1 -4.7,0.2 -7.8,-0.1l0.1 -42.9c2.5,-0.2 5.1,-0.3 7.7,-0.1z"/>
  </g>
  <g id="_2402383730448">
   <path class="fil0" d="M77.5 76.7l-10 -1.2c-1.6,-0.2 -3,0.8 -3.5,2.3l-3.1 9.6c-0.3,1.1 -1.1,1.8 -2.2,2.1 -1.1,0.3 -2.2,0.1 -3,-0.6l-7.9 -6.4c-1.2,-1 -3,-1 -4.2,0l-7.8 6.4c-0.9,0.7 -1.9,0.9 -3,0.6 -1.1,-0.3 -1.9,-1.1 -2.2,-2.1l-3.2 -9.6c-0.5,-1.5 -2,-2.4 -3.5,-2.2l-10 1.2c-1.1,0.1 -2.1,-0.3 -2.9,-1.1 -0.7,-0.8 -1,-1.9 -0.7,-3l2.6 -9.8c0.4,-1.5 -0.3,-3.1 -1.8,-3.8l-9.1 -4.4c-1,-0.5 -1.7,-1.4 -1.8,-2.5 -0.2,-1.1 0.2,-2.1 1,-2.9l7.4 -6.8c1.2,-1.1 1.4,-2.8 0.6,-4.1l-5.3 -8.6c-0.6,-1 -0.7,-2 -0.2,-3.1 0.5,-1 1.3,-1.7 2.4,-1.9l10 -1.7c1.6,-0.3 2.7,-1.6 2.7,-3.2l0.2 -10.1c0,-1.1 0.6,-2.1 1.5,-2.7 0.9,-0.6 2,-0.7 3.1,-0.3l9.4 3.9c1.5,0.6 3.1,0.1 4,-1.2l5.7 -8.3c0.6,-0.9 1.6,-1.4 2.7,-1.4 1.1,-0 2.1,0.5 2.7,1.4l5.7 8.3c0.9,1.3 2.6,1.8 4,1.2l9.3 -4c1,-0.4 2.1,-0.4 3.1,0.2 1,0.6 1.5,1.6 1.5,2.7l0.3 10c0,1.6 1.2,2.9 2.7,3.1l10 1.7c1.1,0.2 2,0.9 2.5,1.9 0.5,1 0.4,2.1 -0.2,3.1l-5.2 8.6c-0.8,1.4 -0.6,3.1 0.6,4.1l7.5 6.8c0.8,0.8 1.2,1.8 1.1,2.9 -0.2,1.1 -0.8,2 -1.8,2.5l-9.1 4.5c-1.4,0.7 -2.1,2.3 -1.7,3.8l2.6 9.7c0.3,1.1 0.1,2.2 -0.7,3 -0.7,0.9 -1.8,1.3 -2.9,1.1z"/>
   <path class="fil1" d="M56.2 65.4l-0 -15.2c-0,-0.6 -0.5,-1.1 -1.1,-1.1l-18.3 0c-0.6,0 -1.1,0.5 -1.1,1.1l-0.1 15.2c-0,0.3 -0.1,0.6 -0.4,0.8 -0.2,0.2 -0.5,0.3 -0.8,0.3 -2.3,-0.1 -4.6,-0.3 -6.9,-0.6 -0.6,-0.1 -1,-0.5 -1,-1.1l0 -39.1c0,-0.6 0.4,-1 1,-1.1 2.3,-0.3 4.7,-0.5 7.1,-0.6 0.3,-0 0.6,0.1 0.8,0.3 0.2,0.2 0.3,0.5 0.3,0.8l0 14.1c0,0.6 0.5,1.1 1.1,1.1l18.2 0c0.6,0 1.1,-0.5 1.1,-1.1l0 -14.1c0,-0.3 0.1,-0.6 0.3,-0.8 0.2,-0.2 0.5,-0.3 0.8,-0.3 2.4,0.2 4.8,0.4 7.1,0.6 0.6,0.1 1,0.5 1,1.1l0 39c0,0.6 -0.4,1 -1,1.1 -2.4,0.3 -4.7,0.5 -7.1,0.7 -0.3,0 -0.6,-0.1 -0.8,-0.3 -0.2,-0.2 -0.4,-0.5 -0.4,-0.8z"/>
   <path class="fil2" d="M47.1 23.7l0 43.1c-2.5,0.1 -4.7,0.2 -7.8,-0.1l0.1 -42.9c2.5,-0.2 5.1,-0.3 7.7,-0.1z"/>
  </g>
 </g>
</svg>
